<?xml version="1.0" standalone="no"?>
<!DOCTYPE svg PUBLIC "-//W3C//DTD SVG 20010904//EN"
 "http://www.w3.org/TR/2001/REC-SVG-20010904/DTD/svg10.dtd">
<svg version="1.0" xmlns="http://www.w3.org/2000/svg"
 width="1520.000000pt" height="1520.000000pt" viewBox="0 0 1520.000000 1520.000000"
 preserveAspectRatio="xMidYMid meet">
<metadata>
Created by potrace 1.14, written by Peter Selinger 2001-2017
</metadata>
<g transform="translate(0.000000,1520.000000) scale(0.100000,-0.100000)"
fill="#000000" stroke="none">
<path d="M6178 10135 c-2 -1 -37 -6 -79 -9 -42 -3 -111 -13 -155 -21 -43 -9
-95 -18 -114 -21 -19 -3 -39 -9 -45 -12 -5 -4 -19 -8 -30 -9 -56 -9 -259 -91
-347 -140 -31 -17 -66 -34 -77 -38 -12 -3 -21 -11 -21 -16 0 -5 -3 -8 -7 -7
-5 2 -37 -17 -72 -41 -312 -213 -519 -526 -567 -856 -15 -105 -9 -396 11 -494
9 -49 46 -187 57 -216 33 -89 124 -264 147 -285 4 -3 19 -23 36 -45 46 -63
244 -255 263 -255 3 0 15 -8 26 -18 67 -59 304 -177 476 -237 58 -20 112 -38
120 -40 8 -2 15 -4 15 -5 0 -2 20 -7 59 -15 16 -3 33 -8 38 -11 5 -3 18 -7 31
-10 25 -4 36 -7 122 -28 33 -8 76 -17 96 -20 20 -3 42 -8 50 -10 8 -3 30 -7
49 -10 19 -3 69 -15 110 -26 41 -11 85 -23 97 -25 12 -3 35 -10 50 -16 16 -6
35 -12 43 -14 37 -8 185 -67 252 -101 227 -114 363 -251 424 -429 24 -69 28
-95 27 -190 0 -60 -3 -123 -7 -138 -36 -152 -157 -293 -335 -390 -82 -45 -253
-104 -326 -113 -11 -2 -36 -5 -55 -8 -89 -13 -132 -16 -220 -16 -104 0 -172 6
-310 26 -41 5 -130 30 -195 54 -33 12 -64 22 -70 24 -38 8 -178 88 -283 161
-51 35 -213 190 -292 280 -51 58 -151 183 -188 235 -63 90 -58 86 -86 54 -13
-16 -34 -40 -46 -54 -12 -14 -43 -49 -68 -79 -26 -30 -51 -59 -57 -65 -5 -6
-39 -45 -75 -86 -35 -41 -71 -82 -80 -91 -8 -9 -26 -29 -39 -45 -14 -16 -46
-54 -73 -85 -46 -54 -56 -74 -40 -81 4 -1 27 -30 51 -63 120 -162 302 -347
451 -456 62 -45 140 -99 144 -99 2 0 33 -17 67 -38 35 -21 75 -43 89 -49 121
-55 164 -73 225 -92 95 -30 95 -30 100 -31 3 0 23 -7 45 -15 22 -8 43 -14 45
-14 4 0 107 -21 125 -26 3 -1 32 -5 65 -9 33 -5 69 -10 80 -12 48 -10 212 -18
355 -18 172 0 289 8 420 29 110 18 124 21 175 35 22 6 51 13 65 16 95 20 285
99 415 173 74 43 213 149 275 211 91 92 230 278 230 307 0 7 3 13 8 13 4 0 16
21 26 48 11 26 22 49 26 52 8 6 78 225 85 265 3 17 7 41 10 55 21 106 32 317
21 430 -17 177 -110 395 -233 552 -19 24 -183 186 -205 203 -64 49 -131 96
-182 127 -56 34 -278 148 -289 148 -2 0 -31 12 -63 27 -33 14 -63 28 -69 29
-5 2 -62 21 -125 44 -63 22 -131 45 -150 50 -19 5 -71 18 -115 30 -78 21 -230
57 -270 64 -11 1 -30 6 -42 10 -12 4 -32 9 -45 11 -56 11 -84 18 -93 23 -5 4
-19 8 -29 9 -90 14 -329 117 -428 184 -62 43 -155 134 -164 161 -3 10 -9 18
-13 18 -12 0 -66 127 -81 189 -18 76 -19 215 -2 291 24 106 68 186 152 270
145 147 341 231 595 255 150 14 311 5 425 -25 41 -11 84 -22 95 -25 101 -24
302 -137 415 -232 112 -94 251 -256 334 -386 l17 -28 54 53 c29 29 143 142
252 250 110 108 205 203 211 211 10 11 8 20 -9 41 -11 14 -18 26 -15 26 6 0
-33 54 -92 129 -15 18 -30 40 -35 47 -10 17 -153 160 -203 202 -101 87 -316
212 -472 277 -75 31 -280 90 -337 98 -22 3 -47 8 -55 11 -8 3 -37 8 -65 11
-27 2 -63 7 -80 10 -34 6 -422 15 -427 10z"/>
<path d="M10928 10105 c-2 -2 -30 -6 -63 -9 -107 -9 -258 -37 -360 -66 -77
-22 -190 -58 -220 -71 -16 -7 -35 -13 -41 -14 -27 -6 -248 -118 -324 -165 -83
-51 -194 -127 -235 -161 -124 -104 -194 -169 -286 -266 -45 -47 -159 -188
-189 -233 -8 -12 -19 -28 -25 -34 -5 -6 -16 -23 -24 -38 -8 -16 -18 -28 -23
-28 -4 0 -8 -5 -8 -10 0 -6 -16 -35 -35 -65 -30 -48 -128 -231 -130 -245 -1
-3 -9 -23 -19 -45 -37 -84 -74 -182 -90 -240 -9 -33 -20 -67 -23 -75 -3 -8 -7
-21 -9 -29 -1 -7 -8 -34 -14 -60 -52 -222 -65 -345 -64 -631 0 -262 12 -420
44 -565 5 -22 12 -56 15 -75 3 -19 17 -78 31 -130 14 -52 28 -102 30 -110 7
-30 52 -150 89 -240 56 -134 240 -450 299 -513 6 -7 36 -43 68 -82 84 -104
227 -242 333 -321 33 -25 67 -51 75 -57 29 -24 150 -97 159 -97 5 0 11 -4 13
-8 3 -8 194 -103 263 -132 75 -31 251 -85 355 -109 268 -63 658 -74 960 -25
52 8 111 17 130 20 19 3 38 8 41 10 3 2 21 6 40 9 51 9 132 33 244 72 55 19
105 36 110 37 12 3 99 42 139 62 16 8 35 14 42 14 7 0 14 3 16 8 2 4 35 23 73
42 86 43 221 129 295 188 71 57 171 152 179 172 3 8 26 51 51 95 25 44 45 82
46 85 0 3 6 19 13 35 7 17 14 37 17 45 2 8 12 49 23 90 11 41 22 86 25 100 3
14 10 43 15 65 5 22 12 51 15 65 13 64 16 74 28 81 31 19 89 -51 93 -110 1
-23 5 -44 7 -47 14 -14 -66 -298 -93 -330 -6 -8 -9 -14 -5 -14 3 0 -11 -35
-33 -77 -41 -84 -52 -117 -67 -223 -9 -62 -10 -60 11 -103 32 -68 79 -69 192
-5 52 30 110 79 205 173 153 152 204 193 302 242 65 33 367 151 576 225 175
62 212 87 215 145 3 42 -38 96 -100 134 -33 20 -62 36 -65 36 -18 -4 -100 53
-275 190 -319 249 -441 320 -595 349 -44 8 -200 11 -200 4 0 -3 -14 -6 -31 -7
-59 -4 -307 -102 -317 -125 -2 -5 -12 -8 -23 -8 -10 0 -19 -4 -19 -10 0 -5 -4
-10 -9 -10 -14 0 -184 -114 -261 -174 -81 -63 -157 -133 -279 -260 -303 -312
-385 -380 -554 -463 -120 -59 -161 -70 -341 -92 -81 -9 -358 -7 -407 4 -19 4
-50 9 -69 10 -40 3 -71 9 -157 29 -10 2 -31 7 -48 11 -81 19 -232 78 -327 129
-191 101 -394 278 -508 441 -19 27 -38 54 -43 60 -50 68 -151 269 -186 370
-27 81 -58 200 -65 253 -3 24 -8 46 -10 50 -2 4 -7 36 -11 72 -4 36 -9 83 -11
105 -13 116 -6 373 13 500 3 22 7 47 8 55 6 40 17 97 22 110 3 8 7 21 9 28 27
132 126 360 222 512 87 137 162 224 312 359 46 42 240 171 257 171 7 0 13 4
13 10 0 5 3 9 8 8 4 0 34 12 67 27 33 16 62 29 65 30 3 1 18 7 35 14 32 13
148 51 168 55 6 2 30 8 52 14 39 11 55 13 175 29 71 9 289 9 360 0 233 -30
471 -123 688 -269 71 -48 219 -163 253 -197 9 -9 45 -43 79 -76 l62 -59 141
146 c386 401 358 368 345 392 -45 87 -264 298 -411 398 -34 23 -64 44 -67 47
-12 14 -161 98 -261 148 -94 46 -211 91 -334 129 -44 13 -93 28 -110 33 -16 5
-55 14 -85 20 -30 6 -66 14 -80 16 -116 23 -186 29 -397 31 -106 1 -193 0
-195 -1z"/>
<path d="M0 7632 l0 -2439 1168 3 c642 1 1183 4 1202 7 255 31 430 74 570 140
36 17 70 31 76 33 15 3 184 108 214 133 95 80 120 103 172 156 32 33 58 65 58
71 0 7 4 14 9 16 14 5 114 170 126 208 1 3 7 19 14 35 21 50 33 79 37 95 2 8
13 49 25 90 11 41 23 93 25 115 3 21 7 42 9 45 17 27 24 369 11 475 -9 72 -48
238 -58 249 -4 6 -8 16 -8 23 0 31 -131 283 -152 291 -4 2 -8 8 -8 13 0 10
-14 28 -75 97 -72 82 -132 134 -237 209 -67 47 -270 153 -294 153 -26 0 -14
18 26 39 288 150 493 434 545 756 11 67 13 305 4 380 -17 139 -31 198 -71 305
-98 261 -266 450 -503 567 -38 19 -82 41 -97 49 -15 8 -29 14 -30 13 -2 0 -41
10 -88 25 -47 14 -96 27 -110 30 -14 3 -50 10 -80 16 -67 14 -99 19 -170 27
-30 3 -562 8 -1182 10 l-1128 4 0 -2439z m2080 1704 c144 -20 242 -49 345
-104 58 -31 56 -30 130 -102 67 -66 126 -180 147 -285 18 -90 15 -235 -5 -305
-9 -30 -16 -58 -17 -62 -1 -16 -64 -125 -94 -163 -85 -109 -210 -189 -381
-243 -43 -14 -147 -16 -751 -19 l-701 -4 0 643 c0 354 3 645 7 648 13 8 1259
4 1320 -4z m125 -2020 c39 -4 78 -9 87 -12 9 -3 27 -7 40 -9 57 -11 124 -28
133 -35 6 -4 22 -10 37 -14 76 -18 217 -102 282 -167 80 -82 139 -191 162
-299 16 -75 12 -247 -6 -330 -42 -188 -182 -355 -365 -434 -22 -9 -48 -21 -58
-27 -19 -10 -162 -48 -212 -55 -16 -2 -60 -6 -97 -8 -36 -2 -70 -6 -75 -8 -4
-2 -120 -2 -258 -1 -297 3 -243 3 -400 0 -71 -2 -138 1 -147 5 -10 5 -18 5
-18 1 0 -6 -217 -8 -445 -3 -5 0 -28 0 -50 -1 -22 -1 -45 -1 -51 0 -13 1 -17
1393 -4 1401 13 8 1366 4 1445 -4z"/>
</g>
</svg>
