<svg width="136" height="46" viewBox="0 0 136 46" fill="none" xmlns="http://www.w3.org/2000/svg">
<g clip-path="url(#clip0_6601_2870)">
<path d="M127.874 33.2111C128.357 33.4235 128.815 33.6283 129.06 34.0405L129.053 34.0356C129.244 34.3624 129.306 34.6435 129.234 34.8747C129.123 35.2482 128.696 35.433 128.305 35.5802L124.114 37.1438C123.088 37.524 122.028 37.919 121.124 38.5852C120.556 38.9992 120.054 39.5198 119.57 40.0236L119.561 40.0325C118.758 40.8648 117.997 41.6518 116.956 42.0204C116.748 42.0921 116.541 42.1213 116.377 42.0981C116.236 42.0781 116.127 42.0237 116.054 41.9317C115.885 41.7211 115.72 41.3512 115.742 41.1365L115.754 41.0525L115.759 41.0116C115.836 40.3568 115.909 39.7381 116.198 39.1537C117.76 35.9806 117.706 34.5953 117.387 33.9935C117.184 33.6144 116.884 33.5331 116.762 33.5159C116.727 33.511 116.696 33.5105 116.669 33.5105L116.598 33.5161L116.581 33.5837C115.46 38.2358 115.906 40.0236 107.463 44.3273L102.587 38.5852C107.924 37.1764 108.959 33.3483 113.399 30.4327C115.373 29.1355 117.495 27.9721 119.682 28.2502L119.754 28.2605C121.564 28.5164 123.161 29.7592 124.444 30.7573L124.449 30.7613L126.959 32.7159C127.227 32.9281 127.555 33.0717 127.869 33.2091L127.874 33.2111Z" fill="white"/>
</g>
<path d="M99.1535 45.4399C96.1161 45.4399 93.3283 44.899 90.7903 43.8172C88.2522 42.7354 86.0469 41.1959 84.1746 39.1987C82.3022 37.1599 80.846 34.7674 79.8058 32.0213C78.8072 29.2752 78.3079 26.2586 78.3079 22.9716C78.3079 19.851 78.8488 16.9592 79.9306 14.2963C81.054 11.5918 82.5935 9.22015 84.5491 7.18136C86.5046 5.14257 88.7723 3.56147 91.352 2.43805C93.9317 1.31464 96.7194 0.75293 99.7152 0.75293C101.837 0.75293 103.897 1.08579 105.894 1.75152C107.933 2.37564 109.763 3.27021 111.386 4.43524C113.051 5.55865 114.403 6.8485 115.443 8.30477L110.949 12.9857C109.16 11.1549 107.329 9.78186 105.457 8.86648C103.585 7.95111 101.671 7.49342 99.7152 7.49342C97.6764 7.49342 95.7624 7.88869 93.9733 8.67924C92.2257 9.42819 90.6862 10.4892 89.3548 11.8623C88.0649 13.2353 87.0455 14.8788 86.2966 16.7928C85.5476 18.6652 85.1732 20.7248 85.1732 22.9716C85.1732 25.3432 85.5268 27.5069 86.2342 29.4624C86.9831 31.3764 88.0233 33.0199 89.3548 34.393C90.6862 35.766 92.2673 36.827 94.0981 37.576C95.9704 38.2833 98.03 38.637 100.277 38.637C101.65 38.637 103.002 38.4497 104.334 38.0753C105.665 37.7008 106.913 37.1599 108.078 36.4526C109.243 35.7452 110.304 34.9131 111.261 33.9561L114.632 39.4483C113.675 40.5718 112.364 41.5911 110.7 42.5065C109.077 43.4219 107.246 44.15 105.207 44.6909C103.21 45.1902 101.192 45.4399 99.1535 45.4399Z" fill="white"/>
<path d="M55.9628 45.4395C52.3846 45.4395 49.2223 44.7322 46.4762 43.3175C43.7717 41.9029 41.4417 39.7808 39.4861 36.9515L44.1046 31.6465C46.1434 34.559 48.0989 36.577 49.9713 37.7005C51.8436 38.8239 54.0697 39.3856 56.6494 39.3856C58.2305 39.3856 59.6659 39.1359 60.9558 38.6366C62.2456 38.1373 63.265 37.4508 64.014 36.577C64.7629 35.7033 65.1374 34.7047 65.1374 33.5813C65.1374 32.8323 65.0126 32.125 64.7629 31.4593C64.5133 30.7935 64.118 30.1902 63.5771 29.6493C63.0778 29.1084 62.4121 28.6091 61.5799 28.1514C60.7894 27.6937 59.8532 27.2985 58.7714 26.9656C57.6896 26.5911 56.4413 26.2791 55.0267 26.0294C52.7798 25.5717 50.8243 24.9684 49.1599 24.2195C47.4956 23.4705 46.1017 22.5343 44.9783 21.4109C43.8549 20.2875 43.0228 19.0185 42.4819 17.6038C41.941 16.1475 41.6705 14.5248 41.6705 12.7357C41.6705 10.364 42.3362 8.26282 43.6677 6.43207C44.9991 4.60131 46.7883 3.16584 49.0351 2.12564C51.3236 1.04383 53.8824 0.50293 56.7118 0.50293C60.082 0.50293 63.0154 1.16866 65.5119 2.50011C68.0499 3.78996 70.0471 5.68312 71.5034 8.1796L66.7601 12.8605C65.5119 10.8217 64.014 9.26141 62.2664 8.1796C60.5605 7.09779 58.6465 6.55689 56.5245 6.55689C54.9018 6.55689 53.4872 6.80654 52.2805 7.30583C51.0739 7.80513 50.1169 8.51246 49.4096 9.42784C48.7439 10.3016 48.411 11.3418 48.411 12.5484C48.411 13.4222 48.5774 14.2336 48.9103 14.9825C49.2431 15.6898 49.7424 16.3348 50.4082 16.9173C51.1155 17.4582 52.0517 17.9575 53.2167 18.4152C54.3817 18.8312 55.7756 19.2057 57.3983 19.5386C59.6868 20.0379 61.7255 20.6828 63.5147 21.4733C65.3038 22.2223 66.8225 23.1169 68.0708 24.1571C69.319 25.1973 70.2552 26.3623 70.8793 27.6521C71.545 28.942 71.8779 30.3358 71.8779 31.8337C71.8779 34.6215 71.233 37.0347 69.9431 39.0735C68.6533 41.1123 66.8225 42.6934 64.4509 43.8168C62.0792 44.8986 59.2499 45.4395 55.9628 45.4395Z" fill="white"/>
<path d="M0 44.8163V1.12793H18.2243C21.012 1.12793 23.3629 1.54401 25.2768 2.37617C27.1908 3.20833 28.6263 4.45657 29.5833 6.12089C30.5819 7.7436 31.0812 9.74078 31.0812 12.1124C31.0812 14.4841 30.4154 16.5021 29.084 18.1664C27.7941 19.8307 25.9842 20.9749 23.6541 21.5991V20.3508C25.6097 20.7669 27.3156 21.5158 28.7719 22.5976C30.2282 23.6378 31.3516 24.9485 32.1422 26.5296C32.9743 28.1107 33.3904 29.9206 33.3904 31.9594C33.3904 34.0398 33.0575 35.8914 32.3918 37.5141C31.7677 39.0952 30.8107 40.4267 29.5209 41.5085C28.2726 42.5903 26.7539 43.4224 24.9648 44.0049C23.1756 44.5458 21.1368 44.8163 18.8484 44.8163H0ZM6.74049 38.3255H18.4739C21.012 38.3255 22.9884 37.7637 24.4031 36.6403C25.8177 35.5169 26.5251 33.915 26.5251 31.8346C26.5251 30.5448 26.1714 29.4422 25.4641 28.5268C24.7983 27.6114 23.8414 26.9249 22.5931 26.4672C21.3449 25.9679 19.8678 25.7182 18.1619 25.7182H6.74049V38.3255ZM6.74049 19.2274H17.8498C19.0981 19.2274 20.2007 18.9777 21.1576 18.4785C22.1562 17.9792 22.926 17.2926 23.4669 16.4189C24.0494 15.5451 24.3407 14.5465 24.3407 13.4231C24.3407 11.5507 23.7165 10.1153 22.4683 9.11666C21.2201 8.11807 19.4309 7.61877 17.1009 7.61877H6.74049V19.2274Z" fill="white"/>
<defs>
<clipPath id="clip0_6601_2870">
<rect width="31.8679" height="21.7907" fill="white" transform="translate(104.175 19.4595) rotate(8.0481)"/>
</clipPath>
</defs>
</svg>
