<svg width="438" height="63" viewBox="0 0 438 63" fill="none" xmlns="http://www.w3.org/2000/svg">
<g clip-path="url(#clip0_6386_7840)">
<path d="M178.392 45.6307C179.067 45.927 179.705 46.2128 180.047 46.7878L180.038 46.781C180.304 47.2368 180.39 47.629 180.29 47.9515C180.135 48.4726 179.539 48.7304 178.994 48.9357L173.148 51.1171C171.715 51.6476 170.236 52.1986 168.976 53.128C168.183 53.7055 167.483 54.4318 166.808 55.1346L166.796 55.147C165.674 56.3081 164.614 57.4061 163.162 57.9203C162.87 58.0203 162.582 58.061 162.353 58.0286C162.156 58.0008 162.004 57.925 161.903 57.7966C161.668 57.5027 161.437 56.9868 161.468 56.6872L161.485 56.5701L161.491 56.5129C161.599 55.5995 161.701 54.7364 162.104 53.921C164.282 49.4943 164.208 47.5617 163.762 46.7222C163.479 46.1934 163.06 46.08 162.89 46.0559C162.842 46.0491 162.799 46.0484 162.761 46.0485L162.662 46.0562L162.638 46.1505C161.074 52.6406 161.696 55.1346 149.918 61.1386L143.115 53.128C150.561 51.1626 152.004 45.8221 158.199 41.7546C160.952 39.9449 163.913 38.322 166.964 38.7099L167.065 38.7242C169.59 39.0813 171.818 40.8151 173.607 42.2076L173.614 42.2131L177.116 44.9399C177.49 45.2359 177.948 45.4363 178.386 45.6279L178.392 45.6307Z" fill="white"/>
</g>
<path d="M138.325 62.6901C134.088 62.6901 130.199 61.9355 126.658 60.4263C123.117 58.9171 120.041 56.7694 117.429 53.9832C114.817 51.1389 112.785 47.8013 111.334 43.9702C109.941 40.1392 109.244 35.9308 109.244 31.3452C109.244 26.9918 109.999 22.9576 111.508 19.2426C113.075 15.4696 115.223 12.161 117.951 9.31674C120.679 6.47249 123.843 4.26674 127.442 2.6995C131.041 1.13225 134.93 0.348633 139.109 0.348633C142.069 0.348633 144.943 0.813 147.729 1.74173C150.573 2.61243 153.127 3.86042 155.391 5.48571C157.713 7.05295 159.599 8.85238 161.05 10.884L154.781 17.4142C152.286 14.8601 149.731 12.9446 147.119 11.6676C144.507 10.3906 141.837 9.75209 139.109 9.75209C136.265 9.75209 133.595 10.3035 131.099 11.4064C128.661 12.4512 126.513 13.9314 124.656 15.8469C122.856 17.7624 121.434 20.0553 120.389 22.7254C119.344 25.3374 118.822 28.2107 118.822 31.3452C118.822 34.6538 119.315 37.6722 120.302 40.4004C121.347 43.0705 122.798 45.3633 124.656 47.2788C126.513 49.1944 128.719 50.6745 131.273 51.7194C133.885 52.7061 136.758 53.1995 139.893 53.1995C141.808 53.1995 143.695 52.9383 145.552 52.4159C147.41 51.8935 149.151 51.1389 150.776 50.1521C152.402 49.1653 153.882 48.0044 155.217 46.6694L159.919 54.3314C158.584 55.8987 156.755 57.3208 154.433 58.5978C152.169 59.8748 149.615 60.8906 146.771 61.6452C143.985 62.3418 141.17 62.6901 138.325 62.6901Z" fill="white"/>
<path d="M78.0717 62.6897C73.0797 62.6897 68.6682 61.7029 64.8372 59.7294C61.0642 57.7558 57.8136 54.7954 55.0854 50.8483L61.5286 43.4474C64.3728 47.5107 67.101 50.3259 69.713 51.8931C72.3251 53.4604 75.4306 54.244 79.0294 54.244C81.2352 54.244 83.2378 53.8957 85.0372 53.1992C86.8366 52.5026 88.2588 51.5449 89.3036 50.3259C90.3484 49.1069 90.8708 47.7138 90.8708 46.1466C90.8708 45.1018 90.6967 44.115 90.3484 43.1862C90.0001 42.2575 89.4487 41.4158 88.6941 40.6612C87.9975 39.9066 87.0688 39.2101 85.9079 38.5716C84.805 37.9331 83.499 37.3816 81.9898 36.9173C80.4806 36.3949 78.7392 35.9595 76.7656 35.6112C73.6312 34.9727 70.903 34.1311 68.5812 33.0862C66.2593 32.0414 64.3148 30.7354 62.7475 29.1681C61.1803 27.6009 60.0194 25.8305 59.2648 23.8569C58.5102 21.8253 58.1329 19.5615 58.1329 17.0655C58.1329 13.7569 59.0616 10.8256 60.9191 8.27156C62.7765 5.71753 65.2725 3.71495 68.407 2.2638C71.5995 0.754599 75.1694 0 79.1165 0C83.8182 0 87.9105 0.928736 91.3932 2.78621C94.934 4.58564 97.7202 7.22673 99.7519 10.7095L93.1346 17.2397C91.3932 14.3954 89.3036 12.2187 86.8656 10.7095C84.4858 9.20029 81.8156 8.4457 78.8553 8.4457C76.5915 8.4457 74.6179 8.79397 72.9346 9.49053C71.2513 10.1871 69.9162 11.1739 68.9294 12.4509C68.0007 13.6698 67.5363 15.121 67.5363 16.8043C67.5363 18.0233 67.7685 19.1552 68.2329 20.2C68.6972 21.1868 69.3938 22.0865 70.3225 22.8992C71.3093 23.6538 72.6153 24.3503 74.2406 24.9888C75.8659 25.5693 77.8105 26.0917 80.0743 26.5561C83.2668 27.2526 86.111 28.1523 88.607 29.2552C91.103 30.3 93.2217 31.548 94.9631 32.9992C96.7044 34.4503 98.0105 36.0756 98.8812 37.875C99.8099 39.6745 100.274 41.619 100.274 43.7087C100.274 47.5977 99.3746 50.9644 97.5751 53.8087C95.7757 56.6529 93.2217 58.8587 89.9131 60.4259C86.6044 61.9351 82.6573 62.6897 78.0717 62.6897Z" fill="white"/>
<path d="M0 61.8194V0.871094H25.4242C29.3132 0.871094 32.5928 1.45156 35.263 2.61248C37.9331 3.7734 39.9357 5.51478 41.2707 7.83662C42.6638 10.1004 43.3604 12.8866 43.3604 16.1952C43.3604 19.5039 42.4316 22.3191 40.5742 24.6409C38.7747 26.9628 36.2497 28.559 32.9992 29.4297V27.6884C35.7273 28.2688 38.1072 29.3136 40.1388 30.8228C42.1704 32.274 43.7377 34.1024 44.8405 36.3082C46.0015 38.5139 46.5819 41.0389 46.5819 43.8832C46.5819 46.7855 46.1176 49.3685 45.1888 51.6323C44.3181 53.8381 42.9831 55.6956 41.1837 57.2048C39.4423 58.714 37.3236 59.8749 34.8276 60.6875C32.3316 61.4421 29.4874 61.8194 26.2948 61.8194H0ZM9.40346 52.7642H25.7724C29.3132 52.7642 32.0704 51.9806 34.044 50.4134C36.0176 48.8461 37.0043 46.6114 37.0043 43.7091C37.0043 41.9096 36.5109 40.3714 35.5242 39.0944C34.5954 37.8174 33.2604 36.8596 31.519 36.2211C29.7776 35.5246 27.717 35.1763 25.3371 35.1763H9.40346V52.7642ZM9.40346 26.1211H24.9017C26.6431 26.1211 28.1813 25.7728 29.5164 25.0763C30.9095 24.3797 31.9834 23.422 32.738 22.203C33.5506 20.984 33.9569 19.5909 33.9569 18.0237C33.9569 15.4116 33.0862 13.409 31.3448 12.0159C29.6035 10.6228 27.1075 9.92628 23.8569 9.92628H9.40346V26.1211Z" fill="white"/>
<path d="M431.043 62.2871C429.403 62.2871 427.945 61.9429 426.669 61.2544C425.414 60.5457 424.422 59.5839 423.693 58.3689C422.984 57.154 422.63 55.7568 422.63 54.1774C422.63 52.922 422.832 51.7779 423.237 50.7452C423.642 49.7125 424.199 48.8216 424.908 48.0723C425.636 47.3029 426.497 46.7157 427.489 46.3107C428.502 45.8855 429.595 45.6729 430.77 45.6729C431.802 45.6729 432.764 45.8753 433.655 46.2803C434.546 46.665 435.315 47.2016 435.963 47.8901C436.632 48.5786 437.138 49.3987 437.482 50.3504C437.847 51.2818 438.019 52.3044 437.998 53.4181L437.968 54.7545H424.938L424.239 52.2639H435.265L434.809 52.7802V52.0513C434.748 51.383 434.526 50.7857 434.141 50.2592C433.756 49.7328 433.27 49.3177 432.683 49.0139C432.096 48.7102 431.458 48.5583 430.77 48.5583C429.676 48.5583 428.755 48.7709 428.006 49.1962C427.256 49.6011 426.689 50.2086 426.305 51.0186C425.92 51.8083 425.728 52.7903 425.728 53.9648C425.728 55.0785 425.96 56.0504 426.426 56.8806C426.892 57.6906 427.55 58.3183 428.4 58.7638C429.251 59.2093 430.233 59.432 431.347 59.432C432.136 59.432 432.865 59.3004 433.534 59.0371C434.222 58.7739 434.961 58.2981 435.751 57.6096L437.33 59.8268C436.844 60.3128 436.247 60.738 435.538 61.1025C434.85 61.467 434.111 61.7606 433.321 61.9834C432.551 62.1858 431.792 62.2871 431.043 62.2871Z" fill="white"/>
<path d="M405.538 61.9833V46.0372H408.666V49.3176L408.119 49.682C408.322 48.9733 408.717 48.3254 409.304 47.7381C409.891 47.1307 410.59 46.6447 411.4 46.2802C412.21 45.8955 413.04 45.7031 413.89 45.7031C415.105 45.7031 416.118 45.9461 416.928 46.4321C417.738 46.8978 418.345 47.6166 418.75 48.5886C419.155 49.5605 419.357 50.7856 419.357 52.2638V61.9833H416.229V52.4764C416.229 51.5652 416.108 50.816 415.865 50.2288C415.622 49.6213 415.247 49.1859 414.741 48.9227C414.235 48.6392 413.607 48.5177 412.858 48.5582C412.25 48.5582 411.693 48.6595 411.187 48.862C410.681 49.0442 410.235 49.3074 409.851 49.6517C409.486 49.9959 409.193 50.4009 408.97 50.8666C408.767 51.3121 408.666 51.798 408.666 52.3245V61.9833H407.117C406.854 61.9833 406.591 61.9833 406.327 61.9833C406.064 61.9833 405.801 61.9833 405.538 61.9833Z" fill="white"/>
<path d="M397.6 61.9833V46.0373H400.729V61.9833H397.6ZM399.119 42.514C398.451 42.514 397.935 42.3419 397.57 41.9976C397.206 41.6534 397.023 41.1674 397.023 40.5397C397.023 39.9525 397.206 39.4766 397.57 39.1122C397.955 38.7477 398.471 38.5654 399.119 38.5654C399.787 38.5654 400.304 38.7375 400.668 39.0818C401.033 39.426 401.215 39.912 401.215 40.5397C401.215 41.1269 401.022 41.6028 400.638 41.9672C400.273 42.3317 399.767 42.514 399.119 42.514Z" fill="white"/>
<path d="M384.834 61.9833V46.0372H387.993V51.0488L387.689 49.8339C387.912 49.0644 388.286 48.3659 388.813 47.7381C389.359 47.1104 389.977 46.6143 390.666 46.2498C391.374 45.8854 392.103 45.7031 392.852 45.7031C393.197 45.7031 393.521 45.7335 393.824 45.7942C394.148 45.855 394.401 45.9259 394.584 46.0069L393.764 49.4087C393.521 49.3074 393.247 49.2264 392.944 49.1657C392.66 49.0847 392.377 49.0442 392.093 49.0442C391.546 49.0442 391.02 49.1556 390.514 49.3783C390.028 49.5808 389.592 49.8744 389.208 50.2591C388.843 50.6236 388.55 51.059 388.327 51.5652C388.104 52.0512 387.993 52.5878 387.993 53.175V61.9833H384.834Z" fill="white"/>
<path d="M374.478 62.2871C372.838 62.2871 371.38 61.9429 370.105 61.2544C368.849 60.5457 367.857 59.5839 367.128 58.3689C366.419 57.154 366.065 55.7568 366.065 54.1774C366.065 52.922 366.267 51.7779 366.672 50.7452C367.077 49.7125 367.634 48.8216 368.343 48.0723C369.072 47.3029 369.932 46.7157 370.925 46.3107C371.937 45.8855 373.031 45.6729 374.205 45.6729C375.238 45.6729 376.2 45.8753 377.09 46.2803C377.981 46.665 378.751 47.2016 379.399 47.8901C380.067 48.5786 380.573 49.3987 380.918 50.3504C381.282 51.2818 381.454 52.3044 381.434 53.4181L381.404 54.7545H368.373L367.675 52.2639H378.7L378.245 52.7802V52.0513C378.184 51.383 377.961 50.7857 377.576 50.2592C377.192 49.7328 376.706 49.3177 376.119 49.0139C375.531 48.7102 374.893 48.5583 374.205 48.5583C373.112 48.5583 372.19 48.7709 371.441 49.1962C370.692 49.6011 370.125 50.2086 369.74 51.0186C369.355 51.8083 369.163 52.7903 369.163 53.9648C369.163 55.0785 369.396 56.0504 369.862 56.8806C370.327 57.6906 370.985 58.3183 371.836 58.7638C372.686 59.2093 373.668 59.432 374.782 59.432C375.572 59.432 376.301 59.3004 376.969 59.0371C377.657 58.7739 378.397 58.2981 379.186 57.6096L380.766 59.8268C380.28 60.3128 379.682 60.738 378.974 61.1025C378.285 61.467 377.546 61.7606 376.756 61.9834C375.987 62.1858 375.228 62.2871 374.478 62.2871Z" fill="white"/>
<path d="M348.973 61.9831V39.5068H352.102V49.3174L351.555 49.6819C351.757 48.9732 352.152 48.3252 352.739 47.738C353.327 47.1306 354.025 46.6446 354.835 46.2801C355.645 45.8954 356.475 45.703 357.326 45.703C358.541 45.703 359.553 45.946 360.363 46.432C361.173 46.8977 361.781 47.6165 362.186 48.5885C362.591 49.5604 362.793 50.7855 362.793 52.2637V61.9831H359.665V52.4763C359.665 51.5651 359.543 50.8159 359.3 50.2286C359.057 49.6212 358.683 49.1858 358.176 48.9226C357.67 48.6391 357.042 48.5176 356.293 48.5581C355.686 48.5581 355.129 48.6593 354.623 48.8618C354.116 49.0441 353.671 49.3073 353.286 49.6515C352.922 49.9958 352.628 50.4008 352.405 50.8665C352.203 51.312 352.102 51.7979 352.102 52.3244V61.9831H350.553C350.289 61.9831 350.026 61.9831 349.763 61.9831C349.5 61.9831 349.236 61.9831 348.973 61.9831Z" fill="white"/>
<path d="M339.29 61.9829V41.9668H342.419V61.9829H339.29ZM335.98 49.0742V46.0368H346.124V49.0742H335.98Z" fill="white"/>
<path d="M330.537 61.9833V51.5956C330.537 50.7046 330.213 49.9858 329.565 49.4391C328.938 48.8721 328.138 48.5886 327.166 48.5886C326.275 48.5886 325.465 48.7708 324.736 49.1353C324.027 49.4998 323.379 50.0566 322.792 50.8059L320.757 48.7708C321.709 47.7381 322.731 46.9687 323.825 46.4625C324.939 45.9562 326.133 45.7031 327.409 45.7031C328.624 45.7031 329.677 45.9056 330.568 46.3106C331.459 46.7156 332.147 47.3129 332.633 48.1026C333.119 48.8721 333.362 49.8137 333.362 50.9273V61.9833H330.537ZM325.769 62.287C324.736 62.287 323.815 62.0845 323.005 61.6795C322.195 61.2746 321.547 60.7177 321.061 60.009C320.595 59.28 320.362 58.4296 320.362 57.4576C320.362 56.6072 320.514 55.858 320.818 55.21C321.122 54.562 321.567 54.0254 322.154 53.6002C322.762 53.175 323.511 52.851 324.402 52.6283C325.313 52.4055 326.356 52.2942 327.53 52.2942H331.965L331.692 54.7848H327.136C326.528 54.7848 325.981 54.8455 325.495 54.967C325.03 55.0683 324.625 55.2404 324.28 55.4834C323.956 55.7061 323.714 55.9795 323.552 56.3034C323.39 56.6072 323.309 56.9717 323.309 57.3969C323.309 57.8424 323.42 58.2372 323.643 58.5814C323.865 58.9054 324.169 59.1585 324.554 59.3408C324.939 59.523 325.384 59.6141 325.89 59.6141C326.619 59.6141 327.308 59.4926 327.956 59.2497C328.624 58.9864 329.211 58.6321 329.717 58.1866C330.244 57.7411 330.649 57.245 330.932 56.6983L331.661 58.7333C331.236 59.442 330.71 60.0596 330.082 60.5861C329.454 61.1126 328.776 61.5277 328.047 61.8314C327.318 62.1351 326.558 62.287 325.769 62.287Z" fill="white"/>
<path d="M309.892 62.2874C308.414 62.2874 307.057 62.0242 305.822 61.4977C304.587 60.9712 303.514 60.222 302.603 59.2501C301.691 58.2579 300.983 57.0935 300.477 55.7571C299.991 54.4207 299.748 52.9526 299.748 51.353C299.748 49.8343 300.011 48.427 300.537 47.1311C301.084 45.8149 301.833 44.6607 302.785 43.6685C303.737 42.6763 304.84 41.9068 306.096 41.3601C307.351 40.8134 308.708 40.54 310.166 40.54C311.198 40.54 312.201 40.702 313.173 41.026C314.165 41.3297 315.056 41.7651 315.845 42.3321C316.655 42.8788 317.314 43.5065 317.82 44.2152L315.633 46.4932C314.762 45.6023 313.871 44.9341 312.96 44.4886C312.049 44.0431 311.117 43.8204 310.166 43.8204C309.173 43.8204 308.242 44.0127 307.371 44.3975C306.521 44.7619 305.772 45.2783 305.124 45.9465C304.496 46.6147 304 47.4146 303.635 48.346C303.271 49.2572 303.089 50.2595 303.089 51.353C303.089 52.5072 303.261 53.5601 303.605 54.5118C303.969 55.4432 304.476 56.2431 305.124 56.9113C305.772 57.5795 306.541 58.0959 307.432 58.4603C308.343 58.8046 309.346 58.9767 310.439 58.9767C311.107 58.9767 311.765 58.8856 312.413 58.7033C313.061 58.5211 313.669 58.2578 314.236 57.9136C314.803 57.5694 315.319 57.1644 315.785 56.6987L317.425 59.3715C316.959 59.9183 316.321 60.4144 315.511 60.8598C314.722 61.3053 313.831 61.6597 312.838 61.9229C311.867 62.1659 310.884 62.2874 309.892 62.2874Z" fill="white"/>
<path d="M287.946 54.8452V51.7471H296.693V54.8452H287.946Z" fill="white"/>
<path d="M278.167 62.2871C276.527 62.2871 275.069 61.9429 273.794 61.2544C272.538 60.5457 271.546 59.5839 270.817 58.3689C270.108 57.154 269.754 55.7568 269.754 54.1774C269.754 52.922 269.957 51.7779 270.361 50.7452C270.766 49.7125 271.323 48.8216 272.032 48.0723C272.761 47.3029 273.622 46.7157 274.614 46.3107C275.626 45.8855 276.72 45.6729 277.894 45.6729C278.927 45.6729 279.889 45.8753 280.78 46.2803C281.671 46.665 282.44 47.2016 283.088 47.8901C283.756 48.5786 284.262 49.3987 284.607 50.3504C284.971 51.2818 285.143 52.3044 285.123 53.4181L285.093 54.7545H272.062L271.364 52.2639H282.389L281.934 52.7802V52.0513C281.873 51.383 281.65 50.7857 281.266 50.2592C280.881 49.7328 280.395 49.3177 279.808 49.0139C279.22 48.7102 278.583 48.5583 277.894 48.5583C276.801 48.5583 275.879 48.7709 275.13 49.1962C274.381 49.6011 273.814 50.2086 273.429 51.0186C273.044 51.8083 272.852 52.7903 272.852 53.9648C272.852 55.0785 273.085 56.0504 273.551 56.8806C274.016 57.6906 274.675 58.3183 275.525 58.7638C276.375 59.2093 277.358 59.432 278.471 59.432C279.261 59.432 279.99 59.3004 280.658 59.0371C281.347 58.7739 282.086 58.2981 282.875 57.6096L284.455 59.8268C283.969 60.3128 283.371 60.738 282.663 61.1025C281.974 61.467 281.235 61.7606 280.445 61.9834C279.676 62.1858 278.917 62.2871 278.167 62.2871Z" fill="white"/>
<path d="M261.192 61.9829V41.9668H264.32V61.9829H261.192ZM257.881 49.0742V46.0368H268.026V49.0742H257.881Z" fill="white"/>
<path d="M241.153 61.9833V46.0372H244.282V49.3176L243.735 49.682C243.938 48.9733 244.333 48.3254 244.92 47.7381C245.507 47.1307 246.206 46.6447 247.016 46.2802C247.825 45.8955 248.656 45.7031 249.506 45.7031C250.721 45.7031 251.734 45.9461 252.543 46.4321C253.353 46.8978 253.961 47.6166 254.366 48.5886C254.771 49.5605 254.973 50.7856 254.973 52.2638V61.9833H251.845V52.4764C251.845 51.5652 251.723 50.816 251.48 50.2288C251.237 49.6213 250.863 49.1859 250.357 48.9227C249.85 48.6392 249.223 48.5177 248.473 48.5582C247.866 48.5582 247.309 48.6595 246.803 48.862C246.297 49.0442 245.851 49.3074 245.466 49.6517C245.102 49.9959 244.808 50.4009 244.586 50.8666C244.383 51.3121 244.282 51.798 244.282 52.3245V61.9833H242.733C242.47 61.9833 242.206 61.9833 241.943 61.9833C241.68 61.9833 241.417 61.9833 241.153 61.9833Z" fill="white"/>
<path d="M233.216 61.9833V46.0373H236.345V61.9833H233.216ZM234.735 42.514C234.067 42.514 233.55 42.3419 233.186 41.9976C232.822 41.6534 232.639 41.1674 232.639 40.5397C232.639 39.9525 232.822 39.4766 233.186 39.1122C233.571 38.7477 234.087 38.5654 234.735 38.5654C235.403 38.5654 235.92 38.7375 236.284 39.0818C236.649 39.426 236.831 39.912 236.831 40.5397C236.831 41.1269 236.638 41.6028 236.254 41.9672C235.889 42.3317 235.383 42.514 234.735 42.514Z" fill="white"/>
<path d="M225.921 61.9833V51.5956C225.921 50.7046 225.597 49.9858 224.949 49.4391C224.322 48.8721 223.522 48.5886 222.55 48.5886C221.659 48.5886 220.849 48.7708 220.12 49.1353C219.411 49.4998 218.763 50.0566 218.176 50.8059L216.141 48.7708C217.093 47.7381 218.115 46.9687 219.209 46.4625C220.322 45.9562 221.517 45.7031 222.793 45.7031C224.008 45.7031 225.061 45.9056 225.952 46.3106C226.843 46.7156 227.531 47.3129 228.017 48.1026C228.503 48.8721 228.746 49.8137 228.746 50.9273V61.9833H225.921ZM221.153 62.287C220.12 62.287 219.199 62.0845 218.389 61.6795C217.579 61.2746 216.931 60.7177 216.445 60.009C215.979 59.28 215.746 58.4296 215.746 57.4576C215.746 56.6072 215.898 55.858 216.202 55.21C216.505 54.562 216.951 54.0254 217.538 53.6002C218.146 53.175 218.895 52.851 219.786 52.6283C220.697 52.4055 221.74 52.2942 222.914 52.2942H227.349L227.075 54.7848H222.519C221.912 54.7848 221.365 54.8455 220.879 54.967C220.414 55.0683 220.009 55.2404 219.664 55.4834C219.34 55.7061 219.097 55.9795 218.935 56.3034C218.773 56.6072 218.692 56.9717 218.692 57.3969C218.692 57.8424 218.804 58.2372 219.026 58.5814C219.249 58.9054 219.553 59.1585 219.938 59.3408C220.322 59.523 220.768 59.6141 221.274 59.6141C222.003 59.6141 222.692 59.4926 223.34 59.2497C224.008 58.9864 224.595 58.6321 225.101 58.1866C225.628 57.7411 226.033 57.245 226.316 56.6983L227.045 58.7333C226.62 59.442 226.093 60.0596 225.466 60.5861C224.838 61.1126 224.16 61.5277 223.431 61.8314C222.702 62.1351 221.942 62.287 221.153 62.287Z" fill="white"/>
<path d="M204.872 62.2868C203.13 62.2868 201.591 61.9426 200.255 61.2541C198.939 60.5657 197.805 59.533 196.853 58.156L199.101 55.5743C200.093 56.9917 201.045 57.9738 201.956 58.5205C202.867 59.0672 203.95 59.3406 205.206 59.3406C205.975 59.3406 206.674 59.2191 207.302 58.9761C207.929 58.7331 208.425 58.399 208.79 57.9738C209.154 57.5486 209.337 57.0626 209.337 56.5159C209.337 56.1514 209.276 55.8072 209.154 55.4832C209.033 55.1592 208.841 54.8656 208.577 54.6023C208.334 54.3391 208.01 54.0961 207.605 53.8734C207.221 53.6506 206.765 53.4583 206.239 53.2963C205.712 53.114 205.105 52.9622 204.416 52.8407C203.323 52.6179 202.371 52.3243 201.561 51.9599C200.751 51.5954 200.073 51.1398 199.526 50.5931C198.979 50.0463 198.574 49.4287 198.311 48.7403C198.048 48.0316 197.916 47.2419 197.916 46.3712C197.916 45.217 198.24 44.1944 198.888 43.3034C199.536 42.4125 200.407 41.7139 201.5 41.2077C202.614 40.6812 203.859 40.418 205.236 40.418C206.876 40.418 208.304 40.742 209.519 41.3899C210.754 42.0176 211.726 42.939 212.435 44.1539L210.126 46.4319C209.519 45.4397 208.79 44.6804 207.939 44.1539C207.109 43.6274 206.178 43.3642 205.145 43.3642C204.355 43.3642 203.667 43.4857 203.08 43.7287C202.493 43.9717 202.027 44.3159 201.683 44.7614C201.359 45.1866 201.197 45.6928 201.197 46.28C201.197 46.7053 201.278 47.1001 201.44 47.4646C201.602 47.8088 201.845 48.1227 202.169 48.4062C202.513 48.6694 202.968 48.9124 203.535 49.1351C204.102 49.3376 204.781 49.5199 205.57 49.6819C206.684 49.9248 207.676 50.2387 208.547 50.6234C209.418 50.9879 210.157 51.4233 210.764 51.9295C211.372 52.4357 211.827 53.0027 212.131 53.6304C212.455 54.2581 212.617 54.9365 212.617 55.6654C212.617 57.0221 212.303 58.1965 211.675 59.1887C211.048 60.1809 210.157 60.9504 209.003 61.4971C207.848 62.0236 206.471 62.2868 204.872 62.2868Z" fill="white"/>
<path d="M250.286 24.3203C248.645 24.3203 247.188 23.9761 245.912 23.2876C244.656 22.5789 243.664 21.6171 242.935 20.4021C242.227 19.1872 241.872 17.79 241.872 16.2106C241.872 14.9552 242.075 13.8111 242.48 12.7784C242.885 11.7457 243.441 10.8548 244.15 10.1056C244.879 9.33609 245.74 8.74887 246.732 8.34389C247.744 7.91867 248.838 7.70605 250.012 7.70605C251.045 7.70605 252.007 7.90854 252.898 8.31352C253.789 8.69825 254.558 9.23485 255.206 9.92331C255.874 10.6118 256.381 11.4319 256.725 12.3836C257.089 13.315 257.261 14.3376 257.241 15.4513L257.211 16.7877H244.181L243.482 14.2971H254.508L254.052 14.8134V14.0845C253.991 13.4163 253.768 12.8189 253.384 12.2924C252.999 11.766 252.513 11.3509 251.926 11.0471C251.339 10.7434 250.701 10.5915 250.012 10.5915C248.919 10.5915 247.997 10.8041 247.248 11.2294C246.499 11.6343 245.932 12.2418 245.547 13.0518C245.163 13.8415 244.97 14.8236 244.97 15.998C244.97 17.1117 245.203 18.0836 245.669 18.9138C246.135 19.7238 246.793 20.3515 247.643 20.797C248.494 21.2425 249.476 21.4652 250.589 21.4652C251.379 21.4652 252.108 21.3336 252.776 21.0703C253.465 20.8071 254.204 20.3313 254.993 19.6428L256.573 21.8601C256.087 22.346 255.49 22.7713 254.781 23.1357C254.092 23.5002 253.353 23.7938 252.564 24.0166C251.794 24.2191 251.035 24.3203 250.286 24.3203Z" fill="white"/>
<path d="M234.907 24.0165V8.07049H238.036V24.0165H234.907ZM236.426 4.54717C235.758 4.54717 235.241 4.37506 234.877 4.03083C234.512 3.68659 234.33 3.20062 234.33 2.5729C234.33 1.98568 234.512 1.50983 234.877 1.14535C235.261 0.780873 235.778 0.598633 236.426 0.598633C237.094 0.598633 237.61 0.770749 237.975 1.11498C238.339 1.45921 238.521 1.94519 238.521 2.5729C238.521 3.16012 238.329 3.63597 237.944 4.00045C237.58 4.36493 237.074 4.54717 236.426 4.54717Z" fill="white"/>
<path d="M227.612 24.0165V13.6288C227.612 12.7378 227.288 12.019 226.64 11.4723C226.012 10.9053 225.212 10.6218 224.241 10.6218C223.35 10.6218 222.54 10.804 221.811 11.1685C221.102 11.533 220.454 12.0898 219.867 12.8391L217.832 10.804C218.783 9.77134 219.806 9.00189 220.899 8.49566C222.013 7.98944 223.208 7.73633 224.484 7.73633C225.698 7.73633 226.751 7.93882 227.642 8.3438C228.533 8.74877 229.222 9.34612 229.708 10.1358C230.194 10.9053 230.437 11.8469 230.437 12.9606V24.0165H227.612ZM222.843 24.3202C221.811 24.3202 220.889 24.1177 220.079 23.7127C219.269 23.3078 218.621 22.7509 218.135 22.0422C217.67 21.3132 217.437 20.4628 217.437 19.4908C217.437 18.6404 217.589 17.8912 217.892 17.2432C218.196 16.5952 218.642 16.0586 219.229 15.6334C219.836 15.2082 220.586 14.8842 221.477 14.6615C222.388 14.4387 223.431 14.3274 224.605 14.3274H229.04L228.766 16.818H224.21C223.603 16.818 223.056 16.8787 222.57 17.0002C222.104 17.1015 221.699 17.2736 221.355 17.5166C221.031 17.7393 220.788 18.0127 220.626 18.3366C220.464 18.6404 220.383 19.0049 220.383 19.4301C220.383 19.8756 220.494 20.2704 220.717 20.6146C220.94 20.9386 221.244 21.1917 221.628 21.374C222.013 21.5562 222.459 21.6473 222.965 21.6473C223.694 21.6473 224.382 21.5258 225.03 21.2829C225.698 21.0196 226.286 20.6653 226.792 20.2198C227.318 19.7743 227.723 19.2782 228.007 18.7315L228.736 20.7665C228.311 21.4752 227.784 22.0928 227.156 22.6193C226.529 23.1458 225.85 23.5609 225.121 23.8646C224.392 24.1683 223.633 24.3202 222.843 24.3202Z" fill="white"/>
<path d="M198.311 24.0163V2.75488H207.18C208.537 2.75488 209.681 2.95737 210.612 3.36235C211.544 3.76733 212.242 4.3748 212.708 5.18476C213.194 5.97446 213.437 6.94641 213.437 8.1006C213.437 9.25479 213.113 10.2369 212.465 11.0468C211.837 11.8568 210.957 12.4136 209.823 12.7174V12.1099C210.774 12.3124 211.605 12.6769 212.313 13.2033C213.022 13.7096 213.569 14.3474 213.953 15.1169C214.358 15.8863 214.561 16.7671 214.561 17.7593C214.561 18.7718 214.399 19.6729 214.075 20.4626C213.771 21.232 213.305 21.88 212.678 22.4065C212.07 22.9329 211.331 23.3379 210.461 23.6214C209.59 23.8846 208.598 24.0163 207.484 24.0163H198.311ZM201.591 20.8574H207.302C208.537 20.8574 209.499 20.5841 210.187 20.0373C210.876 19.4906 211.22 18.711 211.22 17.6986C211.22 17.0709 211.048 16.5343 210.704 16.0888C210.38 15.6433 209.914 15.3092 209.306 15.0865C208.699 14.8435 207.98 14.722 207.15 14.722H201.591V20.8574ZM201.591 11.5632H206.998C207.605 11.5632 208.142 11.4417 208.608 11.1987C209.094 10.9557 209.468 10.6216 209.732 10.1964C210.015 9.77114 210.157 9.28516 210.157 8.73844C210.157 7.82724 209.853 7.12865 209.246 6.64268C208.638 6.1567 207.767 5.91372 206.633 5.91372H201.591V11.5632Z" fill="white"/>
<defs>
<clipPath id="clip0_6386_7840">
<rect width="44.4579" height="30.3995" fill="white" transform="translate(145.331 26.4473) rotate(8.0481)"/>
</clipPath>
</defs>
</svg>
