<svg xmlns="http://www.w3.org/2000/svg"><symbol id="icon-alert_service" viewBox="0 0 75 75"><path d="M37.5 26.923v16.923m0 8.462v4.23M37.5 10 70 65H5l32.5-55Z" stroke-width="4" stroke-linecap="round" stroke-linejoin="round"/></symbol><symbol id="icon-alert" viewBox="0 0 70 60"><g clip-path="url(#a)"><path d="M68.781 51.82c2.031 3.388-.497 7.68-4.627 7.68H5.846c-4.127 0-6.647-4.303-4.626-7.68L30.373 3.07c2.054-3.427 7.2-3.427 9.254 0L68.78 51.82ZM39.898 38.083v-.005l.9-15.936c.066-1.116-.852-2.018-1.958-2.018h-7.705c-1.106 0-2.024.903-1.957 2.018l.028.47h.01l.873 15.462v.002c.052 1.04.939 1.798 1.958 1.798h5.894c1.03 0 1.89-.78 1.957-1.791ZM35 40.984c-3.346 0-6.09 2.621-6.09 5.891s2.744 5.89 6.09 5.89c3.346 0 6.09-2.62 6.09-5.89 0-3.27-2.744-5.89-6.09-5.89Z"/></g><defs><clipPath id="a"><path d="M0 0h70v60H0z"/></clipPath></defs></symbol><symbol id="icon-book" viewBox="0 0 75 75"><path d="M64 37.5v16.944c0 6.392 0 9.584-1.935 11.57C60.13 68 57.019 68 50.792 68h-31.37a8.15 8.15 0 0 1-5.837-2.481 8.586 8.586 0 0 1-2.418-5.991M64 37.5c0 6.391 0 9.584-1.935 11.57-1.935 1.986-5.046 1.986-11.273 1.986h-31.37a8.15 8.15 0 0 0-5.837 2.481 8.586 8.586 0 0 0-2.418 5.99M64 37.5V20.556c0-6.392 0-9.584-1.935-11.57C60.13 7 57.019 7 50.792 7H24.375c-6.228 0-9.338 0-11.273 1.986-1.935 1.986-1.935 5.178-1.935 11.57v38.972" stroke-width="4"/><path d="M27.677 23.944H47.49" stroke-width="4" stroke-linecap="round"/></symbol><symbol id="icon-briefcase" viewBox="0 0 75 73"><path d="M62.45 18.5H11.565c-3.832 0-6.94 3.022-6.94 6.75v31.5c0 3.728 3.108 6.75 6.94 6.75H62.45c3.832 0 6.938-3.022 6.938-6.75v-31.5c0-3.728-3.106-6.75-6.938-6.75Z" stroke-width="3" stroke-linejoin="round"/><path d="M20.817 18.5V14a4.44 4.44 0 0 1 1.354-3.182A4.693 4.693 0 0 1 25.442 9.5h23.13c1.227 0 2.403.474 3.27 1.318A4.439 4.439 0 0 1 53.199 14v4.5m16.19 15.75H4.626m41.633 0v3.375c0 .298-.122.584-.339.795-.217.212-.51.33-.818.33h-16.19a1.17 1.17 0 0 1-.818-.33 1.11 1.11 0 0 1-.339-.795V34.25" stroke-width="4" stroke-linecap="round" stroke-linejoin="round"/></symbol><symbol id="icon-btn_up" viewBox="0 0 88 88"><circle cx="44" cy="44" r="44"/><g clip-path="url(#a)"><path d="M46.536 25.246 75.992 53.9a3.458 3.458 0 0 1 0 5l-3.441 3.347a3.695 3.695 0 0 1-5.14 0L43.96 39.551 20.506 62.262a3.724 3.724 0 0 1-5.14 0l-3.44-3.348a3.457 3.457 0 0 1 0-4.999l29.456-28.67c1.425-1.386 3.729-1.386 5.139 0h.015Z"/></g><defs><clipPath id="a"><path transform="translate(10 6)" d="M0 0h67.917v75.507H0z"/></clipPath></defs></symbol><symbol id="icon-caret_down" viewBox="0 0 26 41"><path d="M2.515 15.5h20.673c1.43 0 2.145 1.68 1.133 2.664L13.988 28.22c-.627.61-1.647.61-2.274 0L1.382 18.164C.37 17.18 1.085 15.5 2.515 15.5Z"/></symbol><symbol id="icon-check" viewBox="0 0 17 17"><g clip-path="url(#a)"><path fill-rule="evenodd" clip-rule="evenodd" d="M14.614 3.907a1 1 0 0 1 0 1.414l-7.495 7.496a1.066 1.066 0 0 1-1.509 0L1.886 9.093A1 1 0 1 1 3.3 7.68l3.064 3.064 6.835-6.836a1 1 0 0 1 1.415 0Z"/></g><defs><clipPath id="a"><path transform="translate(.25 .5)" d="M0 0h16v16H0z"/></clipPath></defs></symbol><symbol id="icon-chevron-right" viewBox="0 0 24 25"><path fill-rule="evenodd" clip-rule="evenodd" d="M7.293 4.793a1 1 0 0 1 1.414 0l7 7a1 1 0 0 1 0 1.414l-7 7a1 1 0 0 1-1.414-1.414l6.293-6.293-6.293-6.293a1 1 0 0 1 0-1.414Z"/></symbol><symbol id="icon-chevron-up" viewBox="0 0 68 76"><g clip-path="url(#a)"><path d="M36.536 19.246 65.992 47.9a3.458 3.458 0 0 1 0 5l-3.441 3.347a3.695 3.695 0 0 1-5.14 0L33.96 33.551 10.506 56.262a3.724 3.724 0 0 1-5.14 0l-3.44-3.348a3.458 3.458 0 0 1 0-4.999l29.455-28.67c1.426-1.386 3.73-1.386 5.14 0h.015Z"/></g><defs><clipPath id="a"><path d="M0 0h67.917v75.507H0z"/></clipPath></defs></symbol><symbol id="icon-close" viewBox="0 0 36 38"><path d="M24.67 19.007 34.618 8.51c1.222-1.29 1.222-3.377 0-4.667L32.41 1.515a3.01 3.01 0 0 0-4.422 0L18.04 12.013 8.093 1.515a3.01 3.01 0 0 0-4.422 0L1.465 3.854C.242 5.144.242 7.23 1.465 8.52l9.947 10.486-9.947 10.498c-1.223 1.29-1.223 3.377 0 4.666L3.67 36.5a3.01 3.01 0 0 0 4.422 0l9.948-10.497L27.99 36.5a3.01 3.01 0 0 0 4.422 0l2.207-2.328c1.222-1.29 1.222-3.376 0-4.666L24.67 19.007Z"/></symbol><symbol id="icon-facebook" viewBox="0 0 53 50"><path d="M51.688 25C51.688 11.621 40.413.781 26.5.781S1.312 11.621 1.312 25c0 12.09 9.212 22.11 21.258 23.926V32.002h-6.4V25h6.399v-5.332c0-6.074 3.757-9.424 9.516-9.424 2.752 0 5.637.469 5.637.469v5.957h-3.18c-3.127 0-4.102 1.865-4.102 3.78V25h6.987l-1.117 7.002h-5.87v16.924C42.476 47.109 51.688 37.09 51.688 25Z"/></symbol><symbol id="icon-logo_baie_sainte_catherine" viewBox="0 0 438 64"><g clip-path="url(#a)"><path d="M178.392 45.902c.675.297 1.313.582 1.655 1.157l-.009-.006c.266.455.352.848.252 1.17-.155.521-.751.779-1.296.984l-5.846 2.182c-1.433.53-2.912 1.081-4.172 2.01-.793.578-1.493 1.304-2.168 2.007l-.012.013c-1.122 1.16-2.182 2.259-3.634 2.773-.292.1-.58.14-.809.108-.197-.028-.349-.103-.45-.232-.235-.294-.466-.81-.435-1.11l.017-.116.006-.058c.108-.913.21-1.776.613-2.591 2.178-4.427 2.104-6.36 1.658-7.2-.283-.528-.702-.642-.872-.666a.894.894 0 0 0-.129-.007l-.099.008-.024.094c-1.564 6.49-.942 8.984-12.72 14.988l-6.803-8.01c7.446-1.966 8.889-7.306 15.084-11.374 2.753-1.81 5.714-3.433 8.765-3.045l.101.015c2.525.357 4.753 2.09 6.542 3.483l.007.006 3.502 2.726c.374.296.832.497 1.27.688l.006.003Z"/></g><path d="M138.325 62.96c-4.237 0-8.126-.754-11.667-2.263a27.043 27.043 0 0 1-9.229-6.443c-2.612-2.844-4.644-6.182-6.095-10.013-1.393-3.831-2.09-8.04-2.09-12.625 0-4.354.755-8.388 2.264-12.103 1.567-3.773 3.715-7.081 6.443-9.926a29.159 29.159 0 0 1 9.491-6.617c3.599-1.567 7.488-2.35 11.667-2.35 2.96 0 5.834.464 8.62 1.392 2.844.871 5.398 2.12 7.662 3.744 2.322 1.568 4.208 3.367 5.659 5.399l-6.269 6.53c-2.495-2.554-5.05-4.47-7.662-5.747-2.612-1.277-5.282-1.915-8.01-1.915-2.844 0-5.514.551-8.01 1.654a19.699 19.699 0 0 0-6.443 4.44c-1.8 1.916-3.222 4.209-4.267 6.88-1.045 2.611-1.567 5.485-1.567 8.619 0 3.309.493 6.327 1.48 9.055 1.045 2.67 2.496 4.963 4.354 6.879 1.857 1.915 4.063 3.395 6.617 4.44 2.612.987 5.485 1.48 8.62 1.48 1.915 0 3.802-.26 5.659-.783a20.933 20.933 0 0 0 5.224-2.264 23.49 23.49 0 0 0 4.441-3.483l4.702 7.662c-1.335 1.567-3.164 2.99-5.486 4.267-2.264 1.277-4.818 2.292-7.662 3.047a34.695 34.695 0 0 1-8.446 1.045Zm-60.253 0c-4.992 0-9.404-.986-13.235-2.96-3.773-1.973-7.023-4.933-9.752-8.88l6.444-7.401c2.844 4.063 5.572 6.878 8.184 8.445 2.612 1.568 5.718 2.351 9.316 2.351 2.206 0 4.209-.348 6.008-1.045 1.8-.696 3.222-1.654 4.267-2.873 1.044-1.219 1.567-2.612 1.567-4.18a8.36 8.36 0 0 0-.523-2.96c-.348-.928-.9-1.77-1.654-2.525-.697-.754-1.625-1.45-2.786-2.09-1.103-.638-2.41-1.19-3.918-1.654-1.51-.522-3.25-.957-5.224-1.306-3.135-.638-5.863-1.48-8.185-2.524-2.322-1.045-4.266-2.351-5.834-3.919-1.567-1.567-2.728-3.337-3.482-5.31-.755-2.033-1.132-4.296-1.132-6.792 0-3.309.929-6.24 2.786-8.794 1.858-2.554 4.353-4.557 7.488-6.008C71.6 1.025 75.169.271 79.117.271c4.701 0 8.793.929 12.276 2.786 3.541 1.8 6.327 4.441 8.359 7.924l-6.617 6.53c-1.742-2.844-3.832-5.021-6.27-6.53-2.38-1.51-5.05-2.264-8.01-2.264-2.264 0-4.237.348-5.92 1.045-1.684.696-3.019 1.683-4.006 2.96-.928 1.22-1.393 2.67-1.393 4.354 0 1.218.233 2.35.697 3.395.464.987 1.16 1.887 2.09 2.7.986.754 2.292 1.45 3.918 2.09 1.625.58 3.57 1.102 5.833 1.566 3.193.697 6.037 1.597 8.533 2.7 2.496 1.044 4.615 2.292 6.356 3.743 1.741 1.451 3.047 3.077 3.918 4.876.929 1.8 1.393 3.744 1.393 5.834 0 3.889-.9 7.256-2.699 10.1-1.8 2.844-4.353 5.05-7.662 6.617-3.309 1.51-7.256 2.264-11.841 2.264ZM0 62.09V1.142h25.424c3.89 0 7.169.58 9.839 1.741 2.67 1.161 4.673 2.903 6.008 5.224 1.393 2.264 2.09 5.05 2.09 8.359s-.93 6.124-2.787 8.446C38.774 27.234 36.25 28.83 33 29.7v-1.742c2.728.58 5.108 1.625 7.14 3.135a14.768 14.768 0 0 1 4.701 5.485c1.161 2.206 1.742 4.73 1.742 7.575 0 2.902-.464 5.485-1.393 7.75a13.743 13.743 0 0 1-4.005 5.571c-1.742 1.51-3.86 2.67-6.356 3.483-2.496.755-5.34 1.132-8.533 1.132H0Zm9.403-9.055h16.37c3.54 0 6.297-.784 8.271-2.35 1.974-1.568 2.96-3.803 2.96-6.705 0-1.8-.493-3.338-1.48-4.615-.929-1.277-2.264-2.235-4.005-2.873-1.741-.697-3.802-1.045-6.182-1.045H9.403v17.588Zm0-26.643h15.499c1.741 0 3.28-.348 4.614-1.045 1.394-.697 2.467-1.654 3.222-2.873.813-1.22 1.219-2.612 1.219-4.18 0-2.612-.87-4.614-2.612-6.007-1.741-1.393-4.237-2.09-7.488-2.09H9.403v16.195Zm421.64 36.166c-1.64 0-3.098-.344-4.374-1.032a7.987 7.987 0 0 1-2.976-2.886c-.709-1.215-1.063-2.612-1.063-4.191 0-1.256.202-2.4.607-3.433a8.19 8.19 0 0 1 1.671-2.672 7.32 7.32 0 0 1 2.581-1.762 8.388 8.388 0 0 1 3.281-.638 6.89 6.89 0 0 1 2.885.608c.891.384 1.66.92 2.308 1.61a6.795 6.795 0 0 1 1.519 2.46c.365.931.537 1.954.516 3.067l-.03 1.337h-13.03l-.699-2.49h11.026l-.456.515v-.729a3.519 3.519 0 0 0-.668-1.791 4.133 4.133 0 0 0-3.371-1.701c-1.094 0-2.015.212-2.764.637-.75.405-1.317 1.013-1.701 1.823-.385.79-.577 1.772-.577 2.946 0 1.114.232 2.086.698 2.916a4.791 4.791 0 0 0 1.974 1.883c.851.446 1.833.668 2.947.668.789 0 1.518-.131 2.187-.395.688-.263 1.427-.739 2.217-1.427l1.579 2.217c-.486.486-1.083.911-1.792 1.276-.688.364-1.427.658-2.217.88a8.929 8.929 0 0 1-2.278.304Zm-25.505-.303V46.308h3.128v3.28l-.547.365c.203-.708.598-1.356 1.185-1.944a6.707 6.707 0 0 1 2.096-1.458 5.744 5.744 0 0 1 2.49-.577c1.215 0 2.228.243 3.038.73.81.465 1.417 1.184 1.822 2.156.405.972.607 2.197.607 3.675v9.72h-3.128v-9.507c0-.912-.121-1.66-.364-2.248-.243-.608-.618-1.043-1.124-1.306-.506-.284-1.134-.405-1.883-.364-.608 0-1.165.1-1.671.303a4.02 4.02 0 0 0-1.336.79c-.365.344-.658.75-.881 1.215a3.474 3.474 0 0 0-.304 1.458v9.659h-3.128Zm-7.938 0V46.308h3.129v15.947H397.6Zm1.519-19.47c-.668 0-1.184-.172-1.549-.516-.364-.344-.547-.83-.547-1.458 0-.587.183-1.063.547-1.428.385-.364.901-.546 1.549-.546.668 0 1.185.172 1.549.516.365.344.547.83.547 1.458 0 .587-.193 1.063-.577 1.428-.365.364-.871.546-1.519.546Zm-14.285 19.47V46.308h3.159v5.012l-.304-1.215a5.692 5.692 0 0 1 1.124-2.096 6.441 6.441 0 0 1 1.853-1.488 4.722 4.722 0 0 1 2.186-.547c.345 0 .669.03.972.092.324.06.577.131.76.212l-.82 3.402a4.374 4.374 0 0 0-.82-.243 3.087 3.087 0 0 0-.851-.122c-.547 0-1.073.112-1.579.335a4.012 4.012 0 0 0-1.306.88c-.365.365-.658.8-.881 1.306a3.814 3.814 0 0 0-.334 1.61v8.809h-3.159Zm-10.356.303c-1.64 0-3.098-.344-4.373-1.032a7.982 7.982 0 0 1-2.977-2.886c-.709-1.215-1.063-2.612-1.063-4.191 0-1.256.202-2.4.607-3.433a8.19 8.19 0 0 1 1.671-2.672 7.332 7.332 0 0 1 2.582-1.762 8.387 8.387 0 0 1 3.28-.638c1.033 0 1.995.203 2.886.608.89.384 1.66.92 2.308 1.61a6.822 6.822 0 0 1 1.519 2.46c.364.931.536 1.954.516 3.067l-.03 1.337h-13.031l-.698-2.49H378.7l-.455.515v-.729a3.528 3.528 0 0 0-.668-1.791 4.133 4.133 0 0 0-3.372-1.701c-1.093 0-2.015.212-2.764.637-.749.405-1.316 1.013-1.701 1.823-.385.79-.577 1.772-.577 2.946 0 1.114.233 2.086.699 2.916a4.78 4.78 0 0 0 1.974 1.883c.85.446 1.832.668 2.946.668.79 0 1.519-.131 2.187-.395.689-.263 1.428-.739 2.217-1.427l1.58 2.217c-.486.486-1.084.911-1.792 1.276-.689.364-1.428.658-2.218.88a8.917 8.917 0 0 1-2.278.304Zm-25.505-.304V39.778h3.129v9.81l-.547.365c.202-.709.597-1.357 1.184-1.944a6.72 6.72 0 0 1 2.096-1.458 5.746 5.746 0 0 1 2.491-.577c1.215 0 2.227.243 3.037.73.81.465 1.418 1.184 1.823 2.156.404.972.607 2.197.607 3.675v9.72h-3.128v-9.508c0-.91-.122-1.66-.365-2.247-.243-.608-.618-1.043-1.124-1.306-.506-.284-1.134-.405-1.883-.365-.607 0-1.164.102-1.67.304a4.025 4.025 0 0 0-1.337.79 4.076 4.076 0 0 0-.881 1.215 3.489 3.489 0 0 0-.303 1.458v9.658h-3.129Zm-9.683.001V42.238h3.129v20.017h-3.129Zm-3.31-12.91V46.31h10.144v3.037H335.98Zm-5.443 12.91V51.867c0-.891-.324-1.61-.972-2.157-.627-.567-1.427-.85-2.399-.85-.891 0-1.701.182-2.43.547-.709.364-1.357.92-1.944 1.67l-2.035-2.035c.952-1.033 1.974-1.802 3.068-2.308a8.559 8.559 0 0 1 3.584-.76c1.215 0 2.268.203 3.159.608.891.405 1.579 1.002 2.065 1.792.486.77.729 1.71.729 2.825v11.056h-2.825Zm-4.768.303c-1.033 0-1.954-.202-2.764-.607a5.042 5.042 0 0 1-1.944-1.67c-.466-.73-.699-1.58-.699-2.552 0-.85.152-1.6.456-2.248a4.12 4.12 0 0 1 1.336-1.61c.608-.425 1.357-.749 2.248-.971.911-.223 1.954-.335 3.128-.335h4.435l-.273 2.491h-4.556c-.608 0-1.155.06-1.641.182-.465.102-.87.274-1.215.517a2.162 2.162 0 0 0-.728.82c-.162.303-.243.668-.243 1.093 0 .446.111.84.334 1.185.222.324.526.577.911.759.385.182.83.273 1.336.273.729 0 1.418-.121 2.066-.364a5.925 5.925 0 0 0 1.761-1.063 4.904 4.904 0 0 0 1.215-1.489l.729 2.035a7.292 7.292 0 0 1-1.579 1.853 7.86 7.86 0 0 1-2.035 1.246 5.867 5.867 0 0 1-2.278.455Zm-15.877 0c-1.478 0-2.835-.263-4.07-.79a9.43 9.43 0 0 1-3.219-2.247c-.912-.992-1.62-2.157-2.126-3.493-.486-1.337-.729-2.805-.729-4.404 0-1.519.263-2.926.789-4.222a11.101 11.101 0 0 1 2.248-3.463 10.17 10.17 0 0 1 3.311-2.308c1.255-.547 2.612-.82 4.07-.82a9.45 9.45 0 0 1 3.007.486 9.094 9.094 0 0 1 2.672 1.306c.81.547 1.469 1.174 1.975 1.883l-2.187 2.278c-.871-.891-1.762-1.56-2.673-2.005a6.298 6.298 0 0 0-2.794-.668c-.993 0-1.924.192-2.795.577a6.875 6.875 0 0 0-2.247 1.55c-.628.667-1.124 1.467-1.489 2.399-.364.911-.546 1.913-.546 3.007 0 1.154.172 2.207.516 3.159a7.13 7.13 0 0 0 1.519 2.399 6.716 6.716 0 0 0 2.308 1.55c.911.343 1.914.515 3.007.515a7.26 7.26 0 0 0 1.974-.273 7.312 7.312 0 0 0 1.823-.79 8.21 8.21 0 0 0 1.549-1.215l1.64 2.673c-.466.547-1.104 1.043-1.914 1.489-.789.445-1.68.8-2.673 1.063-.971.243-1.954.364-2.946.364Zm-21.946-7.441v-3.098h8.747v3.098h-8.747Zm-9.779 7.441c-1.64 0-3.098-.344-4.373-1.032a7.982 7.982 0 0 1-2.977-2.886c-.709-1.215-1.063-2.612-1.063-4.191 0-1.256.203-2.4.607-3.433a8.19 8.19 0 0 1 1.671-2.672 7.332 7.332 0 0 1 2.582-1.762 8.387 8.387 0 0 1 3.28-.638c1.033 0 1.995.203 2.886.608.891.384 1.66.92 2.308 1.61a6.822 6.822 0 0 1 1.519 2.46c.364.931.536 1.954.516 3.067l-.03 1.337h-13.031l-.698-2.49h11.025l-.455.515v-.729a3.528 3.528 0 0 0-.668-1.791 4.133 4.133 0 0 0-3.372-1.701c-1.093 0-2.015.212-2.764.637-.749.405-1.316 1.013-1.701 1.823-.385.79-.577 1.772-.577 2.946 0 1.114.233 2.086.699 2.916a4.785 4.785 0 0 0 1.974 1.883c.85.446 1.833.668 2.946.668.79 0 1.519-.131 2.187-.395.689-.263 1.428-.739 2.217-1.427l1.58 2.217c-.486.486-1.084.911-1.792 1.276-.689.364-1.428.658-2.218.88a8.917 8.917 0 0 1-2.278.304Zm-16.975-.303V42.238h3.128v20.017h-3.128Zm-3.311-12.91V46.31h10.145v3.037h-10.145Zm-16.727 12.91V46.308h3.128v3.28l-.547.365c.203-.708.598-1.356 1.185-1.944a6.707 6.707 0 0 1 2.096-1.458 5.744 5.744 0 0 1 2.49-.577c1.215 0 2.228.243 3.038.73.809.465 1.417 1.184 1.822 2.156.405.972.607 2.197.607 3.675v9.72h-3.128v-9.507c0-.912-.122-1.66-.365-2.248-.243-.608-.617-1.043-1.123-1.306-.507-.284-1.134-.405-1.884-.364-.607 0-1.164.1-1.67.303a4.02 4.02 0 0 0-1.336.79c-.365.344-.659.75-.881 1.215a3.474 3.474 0 0 0-.304 1.458v9.659h-3.128Zm-7.938 0V46.308h3.129v15.947h-3.129Zm1.519-19.47c-.668 0-1.185-.172-1.549-.516-.365-.344-.547-.83-.547-1.458 0-.587.182-1.063.547-1.428.385-.364.901-.546 1.549-.546.668 0 1.185.172 1.549.516.365.344.547.83.547 1.458 0 .587-.193 1.063-.577 1.428-.365.364-.871.546-1.519.546Zm-8.814 19.47V51.867c0-.891-.324-1.61-.972-2.157-.627-.567-1.427-.85-2.399-.85-.891 0-1.701.182-2.43.547-.709.364-1.357.92-1.944 1.67l-2.035-2.035c.952-1.033 1.974-1.802 3.068-2.308a8.556 8.556 0 0 1 3.584-.76c1.215 0 2.268.203 3.159.608.891.405 1.579 1.002 2.065 1.792.486.77.729 1.71.729 2.825v11.056h-2.825Zm-4.768.303c-1.033 0-1.954-.202-2.764-.607a5.042 5.042 0 0 1-1.944-1.67c-.466-.73-.699-1.58-.699-2.552 0-.85.152-1.6.456-2.248a4.112 4.112 0 0 1 1.336-1.61c.608-.425 1.357-.749 2.248-.971.911-.223 1.954-.335 3.128-.335h4.435l-.274 2.491h-4.556c-.607 0-1.154.06-1.64.182-.465.102-.87.274-1.215.517a2.165 2.165 0 0 0-.729.82c-.162.303-.243.668-.243 1.093 0 .446.112.84.334 1.185.223.324.527.577.912.759.384.182.83.273 1.336.273.729 0 1.418-.121 2.066-.364a5.925 5.925 0 0 0 1.761-1.063 4.904 4.904 0 0 0 1.215-1.489l.729 2.035a7.312 7.312 0 0 1-1.579 1.853 7.86 7.86 0 0 1-2.035 1.246 5.867 5.867 0 0 1-2.278.455Zm-16.281 0c-1.742 0-3.281-.344-4.617-1.032-1.316-.689-2.45-1.722-3.402-3.099l2.248-2.581c.992 1.417 1.944 2.4 2.855 2.946.911.547 1.994.82 3.25.82.769 0 1.468-.121 2.096-.364.627-.243 1.123-.578 1.488-1.003a2.18 2.18 0 0 0 .547-1.458c0-.364-.061-.708-.183-1.032a2.446 2.446 0 0 0-.577-.881 3.805 3.805 0 0 0-.972-.73 6.59 6.59 0 0 0-1.366-.576 11.957 11.957 0 0 0-1.823-.456c-1.093-.223-2.045-.516-2.855-.88-.81-.365-1.488-.82-2.035-1.367a5.25 5.25 0 0 1-1.215-1.853c-.263-.709-.395-1.499-.395-2.37 0-1.154.324-2.176.972-3.067.648-.891 1.519-1.59 2.612-2.096 1.114-.526 2.359-.79 3.736-.79 1.64 0 3.068.324 4.283.972a6.975 6.975 0 0 1 2.916 2.764l-2.309 2.278c-.607-.992-1.336-1.751-2.187-2.278-.83-.526-1.761-.79-2.794-.79-.79 0-1.478.122-2.065.365s-1.053.587-1.397 1.033c-.324.425-.486.931-.486 1.518 0 .426.081.82.243 1.185.162.344.405.658.729.942.344.263.799.506 1.366.729.567.202 1.246.384 2.035.546 1.114.243 2.106.557 2.977.942.871.364 1.61.8 2.217 1.306.608.506 1.063 1.073 1.367 1.7a4.38 4.38 0 0 1 .486 2.036c0 1.357-.314 2.531-.942 3.523-.627.992-1.518 1.762-2.672 2.309-1.155.526-2.532.79-4.131.79Zm45.414-37.967c-1.64 0-3.098-.344-4.374-1.032a7.982 7.982 0 0 1-2.977-2.886c-.708-1.215-1.063-2.612-1.063-4.191 0-1.256.203-2.4.608-3.432a8.205 8.205 0 0 1 1.67-2.673 7.332 7.332 0 0 1 2.582-1.762 8.387 8.387 0 0 1 3.28-.638c1.033 0 1.995.203 2.886.608.891.384 1.66.921 2.308 1.61a6.807 6.807 0 0 1 1.519 2.46c.364.931.536 1.954.516 3.068l-.03 1.336h-13.03l-.699-2.49h11.026l-.456.516v-.73a3.528 3.528 0 0 0-.668-1.791 4.133 4.133 0 0 0-3.372-1.701c-1.093 0-2.014.212-2.764.638-.749.405-1.316 1.012-1.701 1.822-.384.79-.577 1.772-.577 2.946 0 1.114.233 2.086.699 2.916a4.791 4.791 0 0 0 1.974 1.883c.851.446 1.833.668 2.946.668.79 0 1.519-.131 2.187-.394.689-.264 1.428-.74 2.218-1.428l1.579 2.217a7.086 7.086 0 0 1-1.792 1.276 11.26 11.26 0 0 1-2.217.88 8.929 8.929 0 0 1-2.278.305Zm-15.379-.303V8.342h3.129v15.946h-3.129Zm1.519-19.47c-.668 0-1.185-.172-1.549-.516-.365-.344-.547-.83-.547-1.458 0-.587.182-1.063.547-1.427.384-.365.901-.547 1.549-.547.668 0 1.184.172 1.549.516.364.344.546.83.546 1.458 0 .587-.192 1.063-.577 1.428-.364.364-.87.546-1.518.546Zm-8.814 19.47V13.9c0-.89-.324-1.61-.972-2.157-.628-.566-1.428-.85-2.399-.85-.891 0-1.701.182-2.43.547-.709.364-1.357.921-1.944 1.67l-2.035-2.035c.951-1.032 1.974-1.802 3.067-2.308a8.563 8.563 0 0 1 3.585-.76c1.214 0 2.267.203 3.158.608.891.405 1.58 1.002 2.066 1.792.486.77.729 1.711.729 2.825v11.056h-2.825Zm-4.769.303c-1.032 0-1.954-.202-2.764-.607a5.042 5.042 0 0 1-1.944-1.67c-.465-.73-.698-1.58-.698-2.552 0-.85.152-1.6.455-2.248a4.122 4.122 0 0 1 1.337-1.61c.607-.425 1.357-.749 2.248-.971.911-.223 1.954-.334 3.128-.334h4.435l-.274 2.49h-4.556a6.75 6.75 0 0 0-1.64.183 3.29 3.29 0 0 0-1.215.516 2.165 2.165 0 0 0-.729.82c-.162.304-.243.668-.243 1.093 0 .446.111.84.334 1.185.223.324.527.577.911.76.385.181.831.273 1.337.273.729 0 1.417-.122 2.065-.365a5.93 5.93 0 0 0 1.762-1.063 4.934 4.934 0 0 0 1.215-1.488l.729 2.035a7.297 7.297 0 0 1-1.58 1.852 7.844 7.844 0 0 1-2.035 1.246 5.864 5.864 0 0 1-2.278.455Zm-24.532-.303V3.026h8.869c1.357 0 2.501.203 3.432.608.932.405 1.63 1.012 2.096 1.822.486.79.729 1.762.729 2.916s-.324 2.136-.972 2.946c-.628.81-1.508 1.367-2.642 1.67v-.607c.951.203 1.782.567 2.49 1.094a5.142 5.142 0 0 1 1.64 1.913c.405.77.608 1.65.608 2.643 0 1.012-.162 1.913-.486 2.703a4.803 4.803 0 0 1-1.397 1.944c-.608.526-1.347.931-2.217 1.215-.871.263-1.863.395-2.977.395h-9.173Zm3.28-3.16h5.711c1.235 0 2.197-.273 2.885-.82.689-.546 1.033-1.325 1.033-2.338 0-.628-.172-1.164-.516-1.61-.324-.445-.79-.78-1.398-1.002-.607-.243-1.326-.365-2.156-.365h-5.559v6.136Zm0-9.293h5.407c.607 0 1.144-.122 1.61-.365.486-.243.86-.577 1.124-1.002a2.57 2.57 0 0 0 .425-1.458c0-.911-.304-1.61-.911-2.096-.608-.486-1.479-.729-2.613-.729h-5.042v5.65Z"/><defs><clipPath id="a"><path transform="rotate(8.048 -117.235 1046.293)" d="M0 0h44.458v30.399H0z"/></clipPath></defs></symbol><symbol id="icon-map" viewBox="0 0 75 75"><path d="m48.75 67.163-22.5-7.875-14.842 5.738c-.96.357-1.852.254-2.674-.311-.823-.566-1.234-1.36-1.234-2.382V16.467c0-.667.162-1.279.487-1.834a2.545 2.545 0 0 1 1.418-1.151L26.25 7.741l22.5 7.875 14.843-5.738c.96-.357 1.85-.29 2.673.203.823.492 1.234 1.226 1.234 2.201v46.444c0 .717-.199 1.34-.596 1.867-.395.53-.928.903-1.598 1.118L48.75 67.163Zm-1.875-4.575V18.713l-18.75-6.544v43.876l18.75 6.543Zm3.75 0 13.125-4.324V13.828l-13.125 4.89v43.871ZM11.25 61.077l13.125-5.032V12.169L11.25 16.64v44.438Z"/></symbol><symbol id="icon-menu_burger" viewBox="0 0 36 32"><path d="M1.697 6.313h32.5c.688 0 1.25-.563 1.25-1.25V1.938c0-.688-.562-1.25-1.25-1.25h-32.5c-.687 0-1.25.562-1.25 1.25v3.125c0 .687.563 1.25 1.25 1.25Zm0 12.5h32.5c.688 0 1.25-.563 1.25-1.25v-3.125c0-.688-.562-1.25-1.25-1.25h-32.5c-.687 0-1.25.562-1.25 1.25v3.124c0 .688.563 1.25 1.25 1.25Zm0 12.5h32.5c.688 0 1.25-.563 1.25-1.25v-3.125c0-.688-.562-1.25-1.25-1.25h-32.5c-.687 0-1.25.562-1.25 1.25v3.125c0 .687.563 1.25 1.25 1.25Z"/></symbol><symbol id="icon-minus-close" viewBox="0 0 33 38"><g clip-path="url(#a)"><path d="M30.559 15.531H2.351C1.05 15.531 0 16.565 0 17.844v2.312c0 1.28 1.05 2.313 2.35 2.313h28.21c1.3 0 2.35-1.034 2.35-2.313v-2.312c0-1.28-1.05-2.313-2.35-2.313Z"/><path d="M30.559 15.531H2.351C1.05 15.531 0 16.565 0 17.844v2.312c0 1.28 1.05 2.313 2.35 2.313h28.21c1.3 0 2.35-1.034 2.35-2.313v-2.312c0-1.28-1.05-2.313-2.35-2.313Z"/></g><defs><clipPath id="a"><path transform="translate(0 .5)" d="M0 0h32.91v37H0z"/></clipPath></defs></symbol><symbol id="icon-parking" viewBox="0 0 75 75"><path d="M9.375 15.625a6.25 6.25 0 0 1 6.25-6.25h43.75a6.25 6.25 0 0 1 6.25 6.25v43.75a6.25 6.25 0 0 1-6.25 6.25h-43.75a6.25 6.25 0 0 1-6.25-6.25v-43.75Z" stroke-width="4" stroke-linecap="round" stroke-linejoin="round"/><path d="M31.25 50V25h8.334c2.3 0 4.166 2.797 4.166 6.25s-1.866 6.25-4.166 6.25H31.25" stroke-width="4" stroke-linecap="round" stroke-linejoin="round"/></symbol><symbol id="icon-permis" viewBox="0 0 75 75"><path d="M44.231 38.944h12.74v-3.125h-12.74v3.125Zm0-8.657h12.74v-3.124h-12.74v3.125Zm-26.203 17.55h20.675v-.518c0-1.823-.917-3.234-2.75-4.232-1.833-.997-4.362-1.497-7.587-1.5-3.23 0-5.76.5-7.591 1.5-1.831 1-2.747 2.41-2.747 4.232v.518Zm10.338-11.3c1.318 0 2.429-.45 3.33-1.353.905-.904 1.357-2.015 1.357-3.334 0-1.317-.452-2.427-1.356-3.331-.902-.904-2.013-1.356-3.331-1.356-1.32 0-2.43.452-3.332 1.356-.904.904-1.356 2.014-1.356 3.331 0 1.319.452 2.43 1.356 3.334.902.903 2.013 1.354 3.332 1.354ZM14.422 59.376c-1.438 0-2.638-.481-3.6-1.444-.965-.964-1.447-2.165-1.447-3.603V20.672c0-1.438.482-2.638 1.447-3.6.962-.965 2.162-1.447 3.6-1.447h46.156c1.438 0 2.638.482 3.6 1.447.965.962 1.447 2.162 1.447 3.6v33.656c0 1.438-.481 2.638-1.444 3.6-.964.965-2.165 1.447-3.603 1.447H14.422Zm0-3.125h46.156c.48 0 .92-.2 1.322-.6.4-.402.6-.843.6-1.322V20.672c0-.48-.2-.92-.6-1.322-.402-.4-.843-.6-1.322-.6H14.422c-.48 0-.92.2-1.322.6-.4.402-.6.843-.6 1.322v33.656c0 .48.2.92.6 1.322.402.4.843.6 1.322.6Z"/></symbol><symbol id="icon-play" viewBox="0 0 24 24"><path d="M20.409 9.353a2.998 2.998 0 0 1 0 5.294L7.597 21.614C5.534 22.737 3 21.277 3 18.968V5.033c0-2.31 2.534-3.77 4.597-2.648l12.812 6.968Z" stroke-width="1.5"/></symbol><symbol id="icon-plus_expand" viewBox="0 0 33 38"><g clip-path="url(#a)"><path d="M30.559 15.531H2.351C1.05 15.531 0 16.565 0 17.844v2.312c0 1.28 1.05 2.313 2.35 2.313h28.21c1.3 0 2.35-1.034 2.35-2.313v-2.312c0-1.28-1.05-2.313-2.35-2.313Z"/><path d="M12.986 4.896v28.208c0 1.3 1.034 2.35 2.313 2.35h2.312c1.28 0 2.313-1.05 2.313-2.35V4.896c0-1.3-1.034-2.35-2.313-2.35H15.3c-1.28 0-2.313 1.05-2.313 2.35Z"/></g><defs><clipPath id="a"><path transform="translate(0 .5)" d="M0 0h32.91v37H0z"/></clipPath></defs></symbol><symbol id="icon-search" viewBox="0 0 52 50"><path d="M33.195 29.167h-1.692l-.6-.563a13.267 13.267 0 0 0 3.363-8.812c0-2.679-.817-5.297-2.346-7.524a13.845 13.845 0 0 0-6.248-4.987 14.283 14.283 0 0 0-8.042-.77 14.042 14.042 0 0 0-7.128 3.705 13.432 13.432 0 0 0-3.81 6.934 13.2 13.2 0 0 0 .792 7.824 13.63 13.63 0 0 0 5.127 6.077 14.2 14.2 0 0 0 7.734 2.282c3.448 0 6.618-1.229 9.06-3.27l.578.583v1.646L40.69 42.687l3.19-3.104-10.686-10.416Zm-12.85 0c-5.332 0-9.637-4.188-9.637-9.375 0-5.188 4.305-9.375 9.637-9.375 5.333 0 9.638 4.187 9.638 9.375 0 5.187-4.305 9.375-9.638 9.375Z"/></symbol><symbol id="icon-send_letter" viewBox="0 0 32 30"><path d="M29.17.19 1.252 15.856a1.391 1.391 0 0 0 .133 2.532l6.403 2.613L25.093 6.166c.33-.287.8.152.517.486L11.1 23.85v4.717c0 1.383 1.717 1.928 2.56.926l3.825-4.53 7.505 3.06c.855.35 1.831-.17 1.988-1.067l4.337-25.313C31.519.46 30.212-.397 29.17.19Z"/></symbol><symbol id="icon-sun" viewBox="0 0 87 87"><g clip-path="url(#a)"><path d="M44.08 27.188c-8.989 0-16.313 7.323-16.313 16.312s7.324 16.313 16.313 16.313c8.989 0 16.313-7.324 16.313-16.313 0-8.989-7.324-16.313-16.313-16.313Zm41.869 13.678L69.857 32.83l5.692-17.06c.765-2.311-1.427-4.503-3.72-3.722l-17.06 5.693L46.713 1.63c-1.088-2.175-4.18-2.175-5.268 0L33.41 17.723 16.332 12.03c-2.311-.765-4.503 1.427-3.722 3.72l5.693 17.06L2.21 40.867c-2.175 1.088-2.175 4.18 0 5.268l16.092 8.037-5.693 17.077c-.764 2.311 1.428 4.503 3.722 3.721l17.06-5.692 8.037 16.092c1.088 2.175 4.18 2.175 5.268 0l8.037-16.092 17.06 5.692c2.311.765 4.503-1.427 3.722-3.72l-5.693-17.06 16.092-8.038c2.209-1.105 2.209-4.197.034-5.285ZM59.458 58.878c-8.48 8.479-22.277 8.479-30.756 0-8.479-8.48-8.479-22.277 0-30.756 8.48-8.479 22.277-8.479 30.756 0 8.479 8.48 8.479 22.277 0 30.756Z"/></g><defs><clipPath id="a"><path d="M0 0h87v87H0z"/></clipPath></defs></symbol><symbol id="icon-tax" viewBox="0 0 75 76"><path d="M24.375 45.5a1.875 1.875 0 1 1 0-3.75h26.25a1.875 1.875 0 1 1 0 3.75h-26.25Zm0 11.25a1.875 1.875 0 1 1 0-3.75h26.25a1.875 1.875 0 1 1 0 3.75h-26.25Z"/><path fill-rule="evenodd" clip-rule="evenodd" d="M41.944 4.25H16.875a5.625 5.625 0 0 0-5.625 5.625v56.25a5.625 5.625 0 0 0 5.625 5.625h41.25a5.625 5.625 0 0 0 5.625-5.625V27.508a5.625 5.625 0 0 0-1.481-3.803L46.09 6.072a5.626 5.626 0 0 0-4.147-1.822ZM15 9.875A1.875 1.875 0 0 1 16.875 8h25.069a1.875 1.875 0 0 1 1.383.607L59.505 26.24c.318.346.494.798.495 1.268v38.617A1.875 1.875 0 0 1 58.125 68h-41.25A1.875 1.875 0 0 1 15 66.125V9.875Z"/><path d="M41.25 26.75h20.625a1.875 1.875 0 1 1 0 3.75h-22.5a1.875 1.875 0 0 1-1.875-1.875v-22.5a1.875 1.875 0 1 1 3.75 0V26.75Z"/></symbol><symbol id="icon-trashcan" viewBox="0 0 75 75"><path d="m62.5 28.125-6.234 35.456a6.25 6.25 0 0 1-6.157 5.169H24.891a6.25 6.25 0 0 1-6.157-5.169L12.5 28.125m53.125-9.375H48.047m0 0V12.5a6.25 6.25 0 0 0-6.25-6.25h-8.594a6.25 6.25 0 0 0-6.25 6.25v6.25m21.094 0H26.953m-17.578 0h17.578" stroke-width="4" stroke-linecap="round" stroke-linejoin="round"/></symbol><symbol id="icon-youtube" viewBox="0 0 62 53"><path d="M58.715 12.846c-.667-2.453-2.627-4.378-5.115-5.03C49.088 6.624 31 6.624 31 6.624s-18.088 0-22.6 1.19c-2.488.653-4.447 2.578-5.115 5.031C2.078 17.286 2.078 26.54 2.078 26.54s0 9.255 1.207 13.695c.668 2.454 2.627 4.296 5.116 4.949 4.511 1.19 22.6 1.19 22.6 1.19s18.087 0 22.599-1.19c2.489-.653 4.448-2.506 5.115-4.949 1.207-4.44 1.207-13.695 1.207-13.695s0-9.254-1.207-13.695Zm-33.624 22.1v-16.81l15.112 8.405-15.112 8.406Z"/></symbol></svg>