<svg width="70" height="60" viewBox="0 0 70 60" fill="none" xmlns="http://www.w3.org/2000/svg">
<g clip-path="url(#clip0_6115_1531)">
<path d="M68.781 51.8191L68.7812 51.8196C70.8124 55.2075 68.2845 59.5 64.1545 59.5H5.84549C1.71752 59.5 -0.801551 55.1971 1.21903 51.8192L1.21905 51.8191L30.3733 3.0696C32.4274 -0.356534 37.5726 -0.356534 39.6267 3.0696L68.781 51.8191ZM39.8983 38.0836L39.8985 38.0789L40.7977 22.1433C40.7977 22.143 40.7977 22.1427 40.7978 22.1424C40.8643 21.0271 39.9464 20.125 38.8403 20.125H31.1354C30.029 20.125 29.1109 21.0276 29.178 22.1433L29.2062 22.6133H29.2167L30.0891 38.0751C30.0892 38.0758 30.0892 38.0765 30.0892 38.0772C30.1409 39.1167 31.028 39.875 32.0469 39.875H37.941C38.971 39.875 39.8316 39.0957 39.8983 38.0836ZM35 40.9844C31.6544 40.9844 28.9097 43.6053 28.9097 46.875C28.9097 50.1447 31.6544 52.7656 35 52.7656C38.3457 52.7656 41.0903 50.1447 41.0903 46.875C41.0903 43.6053 38.3457 40.9844 35 40.9844Z" fill="#D13F3F" stroke="white"/>
</g>
<defs>
<clipPath id="clip0_6115_1531">
<rect width="70" height="60" fill="white"/>
</clipPath>
</defs>
</svg>
