<svg width="75" height="75" viewBox="0 0 75 75" fill="none" xmlns="http://www.w3.org/2000/svg">
<path d="M64 37.5V54.4444C64 60.8359 64 64.0282 62.065 66.0141C60.13 68 57.0194 68 50.7917 68H19.4219C17.2325 68 15.1327 67.1074 13.5846 65.5185C12.0364 63.9297 11.1667 61.7747 11.1667 59.5278M64 37.5C64 43.8914 64 47.0838 62.065 49.0697C60.13 51.0556 57.0194 51.0556 50.7917 51.0556H19.4219C17.2325 51.0556 15.1327 51.9482 13.5846 53.537C12.0364 55.1259 11.1667 57.2808 11.1667 59.5278M64 37.5V20.5556C64 14.1641 64 10.9718 62.065 8.98589C60.13 7 57.0194 7 50.7917 7H24.375C18.1473 7 15.0367 7 13.1017 8.98589C11.1667 10.9718 11.1667 14.1641 11.1667 20.5556V59.5278" stroke="#31477D" stroke-width="4"/>
<path d="M27.6771 23.9443H47.4896" stroke="#31477D" stroke-width="4" stroke-linecap="round"/>
</svg>
