<svg width="75" height="73" viewBox="0 0 75 73" fill="none" xmlns="http://www.w3.org/2000/svg">
<path d="M62.4496 18.5H11.5648C7.73254 18.5 4.62592 21.5221 4.62592 25.25V56.75C4.62592 60.4779 7.73254 63.5 11.5648 63.5H62.4496C66.2818 63.5 69.3884 60.4779 69.3884 56.75V25.25C69.3884 21.5221 66.2818 18.5 62.4496 18.5Z" stroke="#31477D" stroke-width="3" stroke-linejoin="round"/>
<path d="M20.8165 18.5V14C20.8165 12.8065 21.3039 11.6619 22.1714 10.818C23.039 9.97411 24.2156 9.5 25.4424 9.5H48.5719C49.7987 9.5 50.9754 9.97411 51.8429 10.818C52.7104 11.6619 53.1978 12.8065 53.1978 14V18.5M69.3884 34.25H4.62592M46.2589 34.25V37.625C46.2589 37.9234 46.1371 38.2095 45.9202 38.4205C45.7033 38.6315 45.4092 38.75 45.1025 38.75H28.9118C28.6051 38.75 28.311 38.6315 28.0941 38.4205C27.8772 38.2095 27.7554 37.9234 27.7554 37.625V34.25" stroke="#31477D" stroke-width="4" stroke-linecap="round" stroke-linejoin="round"/>
</svg>
