<svg width="17" height="17" viewBox="0 0 17 17" fill="none" xmlns="http://www.w3.org/2000/svg">
<g clip-path="url(#clip0_6577_1686)">
<path fill-rule="evenodd" clip-rule="evenodd" d="M14.614 3.90738C14.8014 4.09491 14.9068 4.34921 14.9068 4.61438C14.9068 4.87954 14.8014 5.13385 14.614 5.32138L7.11864 12.8167C7.01959 12.9158 6.90199 12.9944 6.77256 13.048C6.64313 13.1016 6.50441 13.1292 6.36431 13.1292C6.22421 13.1292 6.08549 13.1016 5.95606 13.048C5.82663 12.9944 5.70903 12.9158 5.60998 12.8167L1.88598 9.09338C1.79047 9.00113 1.71428 8.89079 1.66188 8.76878C1.60947 8.64678 1.58188 8.51556 1.58073 8.38278C1.57957 8.25 1.60487 8.11832 1.65516 7.99542C1.70544 7.87253 1.77969 7.76087 1.87358 7.66698C1.96747 7.57309 2.07913 7.49884 2.20202 7.44856C2.32492 7.39827 2.4566 7.37297 2.58938 7.37413C2.72216 7.37528 2.85338 7.40287 2.97538 7.45528C3.09739 7.50768 3.20773 7.58387 3.29998 7.67938L6.36398 10.7434L13.1993 3.90738C13.2922 3.81445 13.4024 3.74073 13.5238 3.69044C13.6452 3.64014 13.7753 3.61426 13.9066 3.61426C14.038 3.61426 14.1681 3.64014 14.2895 3.69044C14.4108 3.74073 14.5211 3.81445 14.614 3.90738Z" fill="black"/>
</g>
<defs>
<clipPath id="clip0_6577_1686">
<rect width="16" height="16" fill="white" transform="translate(0.25 0.5)"/>
</clipPath>
</defs>
</svg>
