<svg width="36" height="38" viewBox="0 0 36 38" fill="none" xmlns="http://www.w3.org/2000/svg">
<path d="M24.6697 19.0074L34.6176 8.51002C35.84 7.22013 35.84 5.13324 34.6176 3.84336L32.4114 1.51527C31.189 0.22538 29.2114 0.22538 27.989 1.51527L18.0411 12.0126L8.09324 1.51527C6.87087 0.22538 4.89322 0.22538 3.67085 1.51527L1.46463 3.85384C0.24226 5.14373 0.24226 7.23062 1.46463 8.52051L11.4125 19.0074L1.46463 29.5048C0.24226 30.7947 0.24226 32.8815 1.46463 34.1714L3.67085 36.4995C4.89322 37.7894 6.87087 37.7894 8.09324 36.4995L18.0411 26.0021L27.989 36.4995C29.2114 37.7894 31.189 37.7894 32.4114 36.4995L34.6176 34.1714C35.84 32.8815 35.84 30.7947 34.6176 29.5048L24.6697 19.0074Z" fill="white"/>
</svg>
