<svg width="438" height="64" viewBox="0 0 438 64" fill="none" xmlns="http://www.w3.org/2000/svg">
<g clip-path="url(#clip0_6408_362)">
<path d="M178.392 45.9022C179.067 46.1985 179.705 46.4842 180.047 47.0593L180.038 47.0525C180.304 47.5083 180.39 47.9005 180.29 48.223C180.135 48.7441 179.539 49.0019 178.994 49.2072L173.148 51.3886C171.715 51.919 170.236 52.4701 168.976 53.3995C168.183 53.977 167.483 54.7033 166.808 55.406L166.796 55.4185C165.674 56.5796 164.614 57.6775 163.162 58.1918C162.87 58.2918 162.582 58.3325 162.353 58.3001C162.156 58.2723 162.004 58.1965 161.903 58.0681C161.668 57.7742 161.437 57.2583 161.468 56.9587L161.485 56.8415L161.491 56.7844C161.599 55.871 161.701 55.0079 162.104 54.1925C164.282 49.7658 164.208 47.8332 163.762 46.9937C163.479 46.4649 163.06 46.3514 162.89 46.3274C162.842 46.3206 162.799 46.3199 162.761 46.3199L162.662 46.3277L162.638 46.422C161.074 52.912 161.696 55.406 149.918 61.4101L143.115 53.3995C150.561 51.4341 152.004 46.0936 158.199 42.0261C160.952 40.2164 163.913 38.5934 166.964 38.9814L167.065 38.9957C169.59 39.3528 171.818 41.0866 173.607 42.479L173.614 42.4846L177.116 45.2114C177.49 45.5074 177.948 45.7077 178.386 45.8994L178.392 45.9022Z" fill="#31477D"/>
</g>
<path d="M138.325 62.9608C134.088 62.9608 130.199 62.2062 126.658 60.697C123.117 59.1878 120.041 57.0401 117.429 54.2539C114.817 51.4096 112.785 48.072 111.334 44.241C109.941 40.4099 109.244 36.2016 109.244 31.616C109.244 27.2625 109.999 23.2283 111.508 19.5134C113.075 15.7404 115.223 12.4317 117.951 9.58749C120.679 6.74324 123.843 4.53749 127.442 2.97025C131.041 1.40301 134.93 0.619385 139.109 0.619385C142.069 0.619385 144.943 1.08375 147.729 2.01249C150.573 2.88318 153.127 4.13117 155.391 5.75646C157.713 7.3237 159.599 9.12313 161.05 11.1547L154.781 17.6849C152.286 15.1309 149.731 13.2154 147.119 11.9384C144.507 10.6613 141.837 10.0228 139.109 10.0228C136.265 10.0228 133.595 10.5743 131.099 11.6771C128.661 12.722 126.513 14.2022 124.656 16.1177C122.856 18.0332 121.434 20.326 120.389 22.9961C119.344 25.6082 118.822 28.4815 118.822 31.616C118.822 34.9246 119.315 37.943 120.302 40.6711C121.347 43.3413 122.798 45.6341 124.656 47.5496C126.513 49.4651 128.719 50.9453 131.273 51.9901C133.885 52.9769 136.758 53.4703 139.893 53.4703C141.808 53.4703 143.695 53.2091 145.552 52.6867C147.41 52.1642 149.151 51.4096 150.776 50.4229C152.402 49.4361 153.882 48.2752 155.217 46.9401L159.919 54.6022C158.584 56.1694 156.755 57.5916 154.433 58.8686C152.169 60.1456 149.615 61.1614 146.771 61.916C143.985 62.6125 141.17 62.9608 138.325 62.9608Z" fill="#31477D"/>
<path d="M78.0716 62.9609C73.0797 62.9609 68.6682 61.9742 64.8371 60.0006C61.0642 58.027 57.8136 55.0667 55.0854 51.1196L61.5285 43.7187C64.3728 47.7819 67.1009 50.5971 69.713 52.1644C72.3251 53.7316 75.4305 54.5152 79.0294 54.5152C81.2352 54.5152 83.2377 54.167 85.0372 53.4704C86.8366 52.7739 88.2587 51.8161 89.3036 50.5971C90.3484 49.3782 90.8708 47.9851 90.8708 46.4178C90.8708 45.373 90.6967 44.3862 90.3484 43.4575C90.0001 42.5287 89.4487 41.6871 88.6941 40.9325C87.9975 40.1779 87.0688 39.4813 85.9079 38.8428C84.805 38.2043 83.4989 37.6529 81.9897 37.1885C80.4805 36.6661 78.7392 36.2308 76.7656 35.8825C73.6311 35.244 70.903 34.4023 68.5811 33.3575C66.2593 32.3126 64.3147 31.0066 62.7475 29.4394C61.1803 27.8721 60.0193 26.1017 59.2647 24.1282C58.5101 22.0965 58.1328 19.8328 58.1328 17.3368C58.1328 14.0281 59.0616 11.0968 60.919 8.5428C62.7765 5.98877 65.2725 3.98619 68.407 2.53504C71.5995 1.02584 75.1693 0.27124 79.1165 0.27124C83.8182 0.27124 87.9104 1.19998 91.3932 3.05745C94.934 4.85688 97.7202 7.49797 99.7518 10.9807L93.1346 17.5109C91.3932 14.6667 89.3035 12.4899 86.8656 10.9807C84.4857 9.47153 81.8156 8.71694 78.8553 8.71694C76.5915 8.71694 74.6179 9.06521 72.9346 9.76177C71.2512 10.4583 69.9162 11.4451 68.9294 12.7221C68.0007 13.9411 67.5363 15.3922 67.5363 17.0756C67.5363 18.2945 67.7685 19.4264 68.2328 20.4713C68.6972 21.458 69.3938 22.3577 70.3225 23.1704C71.3093 23.925 72.6153 24.6215 74.2406 25.2601C75.8659 25.8405 77.8104 26.3629 80.0742 26.8273C83.2668 27.5238 86.111 28.4236 88.607 29.5264C91.103 30.5713 93.2217 31.8193 94.963 33.2704C96.7044 34.7215 98.0104 36.3468 98.8811 38.1463C99.8099 39.9457 100.274 41.8902 100.274 43.9799C100.274 47.869 99.3745 51.2356 97.5751 54.0799C95.7757 56.9242 93.2217 59.1299 89.913 60.6971C86.6044 62.2063 82.6573 62.9609 78.0716 62.9609Z" fill="#31477D"/>
<path d="M0 62.0902V1.14185H25.4242C29.3132 1.14185 32.5928 1.72231 35.263 2.88323C37.9331 4.04415 39.9357 5.78553 41.2707 8.10737C42.6638 10.3712 43.3604 13.1574 43.3604 16.466C43.3604 19.7746 42.4316 22.5898 40.5742 24.9117C38.7747 27.2335 36.2497 28.8298 32.9992 29.7005V27.9591C35.7273 28.5396 38.1072 29.5844 40.1388 31.0936C42.1704 32.5447 43.7377 34.3732 44.8405 36.5789C46.0015 38.7847 46.5819 41.3097 46.5819 44.1539C46.5819 47.0562 46.1176 49.6393 45.1888 51.9031C44.3181 54.1088 42.9831 55.9663 41.1837 57.4755C39.4423 58.9847 37.3236 60.1456 34.8276 60.9583C32.3316 61.7129 29.4874 62.0902 26.2948 62.0902H0ZM9.40346 53.035H25.7724C29.3132 53.035 32.0704 52.2514 34.044 50.6841C36.0176 49.1169 37.0043 46.8821 37.0043 43.9798C37.0043 42.1804 36.5109 40.6422 35.5242 39.3651C34.5954 38.0881 33.2604 37.1304 31.519 36.4919C29.7776 35.7953 27.717 35.447 25.3371 35.447H9.40346V53.035ZM9.40346 26.3919H24.9017C26.6431 26.3919 28.1813 26.0436 29.5164 25.347C30.9095 24.6505 31.9834 23.6927 32.738 22.4738C33.5506 21.2548 33.9569 19.8617 33.9569 18.2944C33.9569 15.6824 33.0862 13.6798 31.3448 12.2867C29.6035 10.8936 27.1075 10.197 23.8569 10.197H9.40346V26.3919Z" fill="#31477D"/>
<path d="M431.043 62.5583C429.403 62.5583 427.945 62.2141 426.669 61.5256C425.414 60.8169 424.422 59.8551 423.693 58.6402C422.984 57.4252 422.63 56.0281 422.63 54.4486C422.63 53.1932 422.832 52.0491 423.237 51.0164C423.642 49.9837 424.199 49.0928 424.908 48.3436C425.636 47.5741 426.497 46.9869 427.489 46.5819C428.502 46.1567 429.595 45.9441 430.77 45.9441C431.802 45.9441 432.764 46.1466 433.655 46.5516C434.546 46.9363 435.315 47.4729 435.963 48.1613C436.632 48.8498 437.138 49.6699 437.482 50.6216C437.847 51.553 438.019 52.5756 437.998 53.6893L437.968 55.0257H424.938L424.239 52.5351H435.265L434.809 53.0515V52.3225C434.748 51.6543 434.526 51.0569 434.141 50.5305C433.756 50.004 433.27 49.5889 432.683 49.2852C432.096 48.9814 431.458 48.8296 430.77 48.8296C429.676 48.8296 428.755 49.0422 428.006 49.4674C427.256 49.8724 426.689 50.4798 426.305 51.2898C425.92 52.0795 425.728 53.0616 425.728 54.236C425.728 55.3497 425.96 56.3217 426.426 57.1519C426.892 57.9618 427.55 58.5895 428.4 59.035C429.251 59.4805 430.233 59.7032 431.347 59.7032C432.136 59.7032 432.865 59.5716 433.534 59.3084C434.222 59.0451 434.961 58.5693 435.751 57.8808L437.33 60.0981C436.844 60.5841 436.247 61.0093 435.538 61.3738C434.85 61.7382 434.111 62.0319 433.321 62.2546C432.551 62.4571 431.792 62.5583 431.043 62.5583Z" fill="#31477D"/>
<path d="M405.538 62.2545V46.3085H408.666V49.5888L408.119 49.9533C408.322 49.2446 408.717 48.5966 409.304 48.0094C409.891 47.4019 410.59 46.9159 411.4 46.5515C412.21 46.1667 413.04 45.9744 413.89 45.9744C415.105 45.9744 416.118 46.2174 416.928 46.7033C417.738 47.169 418.345 47.8879 418.75 48.8598C419.155 49.8318 419.357 51.0568 419.357 52.535V62.2545H416.229V52.7476C416.229 51.8364 416.108 51.0872 415.865 50.5C415.622 49.8925 415.247 49.4572 414.741 49.1939C414.235 48.9105 413.607 48.789 412.858 48.8295C412.25 48.8295 411.693 48.9307 411.187 49.1332C410.681 49.3154 410.235 49.5787 409.851 49.9229C409.486 50.2671 409.193 50.6721 408.97 51.1378C408.767 51.5833 408.666 52.0693 408.666 52.5958V62.2545H407.117C406.854 62.2545 406.591 62.2545 406.327 62.2545C406.064 62.2545 405.801 62.2545 405.538 62.2545Z" fill="#31477D"/>
<path d="M397.6 62.2546V46.3085H400.729V62.2546H397.6ZM399.119 42.7852C398.451 42.7852 397.935 42.6131 397.57 42.2689C397.206 41.9246 397.023 41.4387 397.023 40.8109C397.023 40.2237 397.206 39.7479 397.57 39.3834C397.955 39.0189 398.471 38.8367 399.119 38.8367C399.787 38.8367 400.304 39.0088 400.668 39.353C401.033 39.6973 401.215 40.1832 401.215 40.8109C401.215 41.3982 401.022 41.874 400.638 42.2385C400.273 42.603 399.767 42.7852 399.119 42.7852Z" fill="#31477D"/>
<path d="M384.834 62.2545V46.3085H387.993V51.3201L387.689 50.1051C387.912 49.3357 388.286 48.6371 388.813 48.0094C389.359 47.3817 389.977 46.8856 390.666 46.5211C391.374 46.1566 392.103 45.9744 392.852 45.9744C393.197 45.9744 393.521 46.0047 393.824 46.0655C394.148 46.1262 394.401 46.1971 394.584 46.2781L393.764 49.6799C393.521 49.5787 393.247 49.4977 392.944 49.4369C392.66 49.3559 392.377 49.3154 392.093 49.3154C391.546 49.3154 391.02 49.4268 390.514 49.6495C390.028 49.852 389.592 50.1456 389.208 50.5304C388.843 50.8949 388.55 51.3302 388.327 51.8364C388.104 52.3224 387.993 52.859 387.993 53.4462V62.2545H384.834Z" fill="#31477D"/>
<path d="M374.478 62.5583C372.838 62.5583 371.38 62.2141 370.105 61.5256C368.849 60.8169 367.857 59.8551 367.128 58.6402C366.419 57.4252 366.065 56.0281 366.065 54.4486C366.065 53.1932 366.267 52.0491 366.672 51.0164C367.077 49.9837 367.634 49.0928 368.343 48.3436C369.072 47.5741 369.933 46.9869 370.925 46.5819C371.937 46.1567 373.031 45.9441 374.205 45.9441C375.238 45.9441 376.2 46.1466 377.091 46.5516C377.981 46.9363 378.751 47.4729 379.399 48.1613C380.067 48.8498 380.573 49.6699 380.918 50.6216C381.282 51.553 381.454 52.5756 381.434 53.6893L381.404 55.0257H368.373L367.675 52.5351H378.7L378.245 53.0515V52.3225C378.184 51.6543 377.961 51.0569 377.577 50.5305C377.192 50.004 376.706 49.5889 376.119 49.2852C375.531 48.9814 374.894 48.8296 374.205 48.8296C373.112 48.8296 372.19 49.0422 371.441 49.4674C370.692 49.8724 370.125 50.4798 369.74 51.2898C369.355 52.0795 369.163 53.0616 369.163 54.236C369.163 55.3497 369.396 56.3217 369.862 57.1519C370.327 57.9618 370.985 58.5895 371.836 59.035C372.686 59.4805 373.668 59.7032 374.782 59.7032C375.572 59.7032 376.301 59.5716 376.969 59.3084C377.658 59.0451 378.397 58.5693 379.186 57.8808L380.766 60.0981C380.28 60.5841 379.682 61.0093 378.974 61.3738C378.285 61.7382 377.546 62.0319 376.756 62.2546C375.987 62.4571 375.228 62.5583 374.478 62.5583Z" fill="#31477D"/>
<path d="M348.973 62.2544V39.7781H352.102V49.5887L351.555 49.9532C351.757 49.2445 352.152 48.5965 352.739 48.0093C353.327 47.4018 354.025 46.9158 354.835 46.5513C355.645 46.1666 356.475 45.9742 357.326 45.9742C358.541 45.9742 359.553 46.2172 360.363 46.7032C361.173 47.1689 361.781 47.8878 362.186 48.8597C362.59 49.8317 362.793 51.0567 362.793 52.5349V62.2544H359.665V52.7475C359.665 51.8363 359.543 51.0871 359.3 50.4999C359.057 49.8924 358.682 49.4571 358.176 49.1938C357.67 48.9103 357.042 48.7888 356.293 48.8293C355.686 48.8293 355.129 48.9306 354.623 49.1331C354.116 49.3153 353.671 49.5786 353.286 49.9228C352.922 50.267 352.628 50.672 352.405 51.1377C352.203 51.5832 352.102 52.0692 352.102 52.5956V62.2544H350.553C350.289 62.2544 350.026 62.2544 349.763 62.2544C349.5 62.2544 349.236 62.2544 348.973 62.2544Z" fill="#31477D"/>
<path d="M339.29 62.2546V42.2385H342.419V62.2546H339.29ZM335.98 49.3459V46.3086H346.124V49.3459H335.98Z" fill="#31477D"/>
<path d="M330.537 62.2545V51.8668C330.537 50.9759 330.213 50.257 329.565 49.7103C328.938 49.1433 328.138 48.8598 327.166 48.8598C326.275 48.8598 325.465 49.0421 324.736 49.4066C324.027 49.771 323.379 50.3279 322.792 51.0771L320.757 49.0421C321.709 48.0094 322.731 47.2399 323.825 46.7337C324.939 46.2275 326.133 45.9744 327.409 45.9744C328.624 45.9744 329.677 46.1769 330.568 46.5818C331.459 46.9868 332.147 47.5842 332.633 48.3739C333.119 49.1433 333.362 50.0849 333.362 51.1986V62.2545H330.537ZM325.769 62.5582C324.736 62.5582 323.815 62.3557 323.005 61.9508C322.195 61.5458 321.547 60.9889 321.061 60.2802C320.595 59.5513 320.362 58.7008 320.362 57.7289C320.362 56.8784 320.514 56.1292 320.818 55.4812C321.122 54.8333 321.567 54.2967 322.154 53.8714C322.762 53.4462 323.511 53.1222 324.402 52.8995C325.313 52.6768 326.356 52.5654 327.53 52.5654H331.965L331.692 55.056H327.136C326.528 55.056 325.981 55.1168 325.495 55.2383C325.03 55.3395 324.625 55.5116 324.28 55.7546C323.956 55.9773 323.714 56.2507 323.552 56.5747C323.39 56.8784 323.309 57.2429 323.309 57.6681C323.309 58.1136 323.42 58.5085 323.643 58.8527C323.865 59.1767 324.169 59.4298 324.554 59.612C324.939 59.7943 325.384 59.8854 325.89 59.8854C326.619 59.8854 327.308 59.7639 327.956 59.5209C328.624 59.2577 329.211 58.9033 329.717 58.4578C330.244 58.0124 330.649 57.5163 330.932 56.9695L331.661 59.0045C331.236 59.7133 330.71 60.3309 330.082 60.8573C329.454 61.3838 328.776 61.7989 328.047 62.1026C327.318 62.4064 326.558 62.5582 325.769 62.5582Z" fill="#31477D"/>
<path d="M309.892 62.5581C308.414 62.5581 307.057 62.2949 305.822 61.7684C304.587 61.242 303.514 60.4928 302.603 59.5208C301.691 58.5286 300.983 57.3643 300.477 56.0279C299.991 54.6914 299.748 53.2234 299.748 51.6237C299.748 50.1051 300.011 48.6977 300.537 47.4018C301.084 46.0856 301.833 44.9314 302.785 43.9393C303.737 42.9471 304.84 42.1776 306.096 41.6309C307.351 41.0842 308.708 40.8108 310.166 40.8108C311.198 40.8108 312.201 40.9728 313.173 41.2968C314.165 41.6005 315.056 42.0359 315.845 42.6028C316.655 43.1495 317.314 43.7773 317.82 44.486L315.633 46.764C314.762 45.873 313.871 45.2048 312.96 44.7593C312.049 44.3139 311.117 44.0911 310.166 44.0911C309.173 44.0911 308.242 44.2835 307.371 44.6682C306.521 45.0327 305.772 45.549 305.124 46.2173C304.496 46.8855 304 47.6853 303.635 48.6168C303.271 49.528 303.089 50.5303 303.089 51.6237C303.089 52.7779 303.261 53.8309 303.605 54.7826C303.969 55.714 304.476 56.5138 305.124 57.182C305.772 57.8503 306.541 58.3666 307.432 58.7311C308.343 59.0753 309.346 59.2474 310.439 59.2474C311.107 59.2474 311.765 59.1563 312.413 58.9741C313.061 58.7918 313.669 58.5286 314.236 58.1844C314.803 57.8401 315.319 57.4352 315.785 56.9694L317.425 59.6423C316.959 60.189 316.321 60.6851 315.511 61.1306C314.722 61.5761 313.831 61.9304 312.838 62.1937C311.867 62.4366 310.884 62.5581 309.892 62.5581Z" fill="#31477D"/>
<path d="M287.946 55.1166V52.0186H296.693V55.1166H287.946Z" fill="#31477D"/>
<path d="M278.167 62.5583C276.527 62.5583 275.069 62.2141 273.794 61.5256C272.538 60.8169 271.546 59.8551 270.817 58.6402C270.108 57.4252 269.754 56.0281 269.754 54.4486C269.754 53.1932 269.957 52.0491 270.361 51.0164C270.766 49.9837 271.323 49.0928 272.032 48.3436C272.761 47.5741 273.622 46.9869 274.614 46.5819C275.626 46.1567 276.72 45.9441 277.894 45.9441C278.927 45.9441 279.889 46.1466 280.78 46.5516C281.671 46.9363 282.44 47.4729 283.088 48.1613C283.756 48.8498 284.262 49.6699 284.607 50.6216C284.971 51.553 285.143 52.5756 285.123 53.6893L285.093 55.0257H272.062L271.364 52.5351H282.389L281.934 53.0515V52.3225C281.873 51.6543 281.65 51.0569 281.266 50.5305C280.881 50.004 280.395 49.5889 279.808 49.2852C279.22 48.9814 278.583 48.8296 277.894 48.8296C276.801 48.8296 275.879 49.0422 275.13 49.4674C274.381 49.8724 273.814 50.4798 273.429 51.2898C273.044 52.0795 272.852 53.0616 272.852 54.236C272.852 55.3497 273.085 56.3217 273.551 57.1519C274.016 57.9618 274.675 58.5895 275.525 59.035C276.375 59.4805 277.358 59.7032 278.471 59.7032C279.261 59.7032 279.99 59.5716 280.658 59.3084C281.347 59.0451 282.086 58.5693 282.875 57.8808L284.455 60.0981C283.969 60.5841 283.371 61.0093 282.663 61.3738C281.974 61.7382 281.235 62.0319 280.445 62.2546C279.676 62.4571 278.917 62.5583 278.167 62.5583Z" fill="#31477D"/>
<path d="M261.192 62.2546V42.2385H264.32V62.2546H261.192ZM257.881 49.3459V46.3086H268.026V49.3459H257.881Z" fill="#31477D"/>
<path d="M241.154 62.2545V46.3085H244.282V49.5888L243.735 49.9533C243.938 49.2446 244.333 48.5966 244.92 48.0094C245.507 47.4019 246.206 46.9159 247.016 46.5515C247.826 46.1667 248.656 45.9744 249.506 45.9744C250.721 45.9744 251.734 46.2174 252.544 46.7033C253.353 47.169 253.961 47.8879 254.366 48.8598C254.771 49.8318 254.973 51.0568 254.973 52.535V62.2545H251.845V52.7476C251.845 51.8364 251.723 51.0872 251.48 50.5C251.237 49.8925 250.863 49.4572 250.357 49.1939C249.85 48.9105 249.223 48.789 248.473 48.8295C247.866 48.8295 247.309 48.9307 246.803 49.1332C246.297 49.3154 245.851 49.5787 245.467 49.9229C245.102 50.2671 244.808 50.6721 244.586 51.1378C244.383 51.5833 244.282 52.0693 244.282 52.5958V62.2545H242.733C242.47 62.2545 242.206 62.2545 241.943 62.2545C241.68 62.2545 241.417 62.2545 241.154 62.2545Z" fill="#31477D"/>
<path d="M233.216 62.2546V46.3085H236.345V62.2546H233.216ZM234.735 42.7852C234.067 42.7852 233.55 42.6131 233.186 42.2689C232.821 41.9246 232.639 41.4387 232.639 40.8109C232.639 40.2237 232.821 39.7479 233.186 39.3834C233.571 39.0189 234.087 38.8367 234.735 38.8367C235.403 38.8367 235.92 39.0088 236.284 39.353C236.649 39.6973 236.831 40.1832 236.831 40.8109C236.831 41.3982 236.638 41.874 236.254 42.2385C235.889 42.603 235.383 42.7852 234.735 42.7852Z" fill="#31477D"/>
<path d="M225.921 62.2545V51.8668C225.921 50.9759 225.597 50.257 224.949 49.7103C224.322 49.1433 223.522 48.8598 222.55 48.8598C221.659 48.8598 220.849 49.0421 220.12 49.4066C219.411 49.771 218.763 50.3279 218.176 51.0771L216.141 49.0421C217.093 48.0094 218.115 47.2399 219.209 46.7337C220.322 46.2275 221.517 45.9744 222.793 45.9744C224.008 45.9744 225.061 46.1769 225.952 46.5818C226.843 46.9868 227.531 47.5842 228.017 48.3739C228.503 49.1433 228.746 50.0849 228.746 51.1986V62.2545H225.921ZM221.153 62.5582C220.12 62.5582 219.199 62.3557 218.389 61.9508C217.579 61.5458 216.931 60.9889 216.445 60.2802C215.979 59.5513 215.746 58.7008 215.746 57.7289C215.746 56.8784 215.898 56.1292 216.202 55.4812C216.505 54.8333 216.951 54.2967 217.538 53.8714C218.146 53.4462 218.895 53.1222 219.786 52.8995C220.697 52.6768 221.74 52.5654 222.914 52.5654H227.349L227.075 55.056H222.519C221.912 55.056 221.365 55.1168 220.879 55.2383C220.414 55.3395 220.009 55.5116 219.664 55.7546C219.34 55.9773 219.097 56.2507 218.935 56.5747C218.773 56.8784 218.692 57.2429 218.692 57.6681C218.692 58.1136 218.804 58.5085 219.026 58.8527C219.249 59.1767 219.553 59.4298 219.938 59.612C220.322 59.7943 220.768 59.8854 221.274 59.8854C222.003 59.8854 222.692 59.7639 223.34 59.5209C224.008 59.2577 224.595 58.9033 225.101 58.4578C225.628 58.0124 226.033 57.5163 226.316 56.9695L227.045 59.0045C226.62 59.7133 226.093 60.3309 225.466 60.8573C224.838 61.3838 224.16 61.7989 223.431 62.1026C222.702 62.4064 221.942 62.5582 221.153 62.5582Z" fill="#31477D"/>
<path d="M204.872 62.5583C203.13 62.5583 201.591 62.2141 200.255 61.5256C198.939 60.8371 197.805 59.8044 196.853 58.4275L199.101 55.8458C200.093 57.2632 201.045 58.2453 201.956 58.792C202.867 59.3387 203.95 59.6121 205.206 59.6121C205.975 59.6121 206.674 59.4906 207.302 59.2476C207.929 59.0046 208.425 58.6705 208.79 58.2453C209.154 57.82 209.337 57.3341 209.337 56.7873C209.337 56.4229 209.276 56.0786 209.154 55.7547C209.033 55.4307 208.841 55.1371 208.577 54.8738C208.334 54.6106 208.01 54.3676 207.605 54.1449C207.221 53.9221 206.765 53.7298 206.239 53.5678C205.712 53.3855 205.105 53.2337 204.416 53.1122C203.323 52.8894 202.371 52.5958 201.561 52.2313C200.751 51.8669 200.073 51.4113 199.526 50.8645C198.979 50.3178 198.574 49.7002 198.311 49.0118C198.048 48.3031 197.916 47.5133 197.916 46.6426C197.916 45.4885 198.24 44.4659 198.888 43.5749C199.536 42.684 200.407 41.9854 201.5 41.4792C202.614 40.9527 203.859 40.6895 205.236 40.6895C206.876 40.6895 208.304 41.0134 209.519 41.6614C210.754 42.2891 211.726 43.2104 212.435 44.4254L210.126 46.7034C209.519 45.7112 208.79 44.9519 207.939 44.4254C207.109 43.8989 206.178 43.6357 205.145 43.6357C204.355 43.6357 203.667 43.7572 203.08 44.0002C202.493 44.2431 202.027 44.5874 201.683 45.0328C201.359 45.4581 201.197 45.9643 201.197 46.5515C201.197 46.9767 201.278 47.3716 201.44 47.7361C201.602 48.0803 201.845 48.3942 202.169 48.6777C202.513 48.9409 202.968 49.1839 203.535 49.4066C204.102 49.6091 204.781 49.7913 205.57 49.9533C206.684 50.1963 207.676 50.5102 208.547 50.8949C209.418 51.2594 210.157 51.6947 210.764 52.201C211.372 52.7072 211.827 53.2742 212.131 53.9019C212.455 54.5296 212.617 55.2079 212.617 55.9369C212.617 57.2936 212.303 58.468 211.675 59.4602C211.048 60.4524 210.157 61.2219 209.003 61.7686C207.848 62.2951 206.471 62.5583 204.872 62.5583Z" fill="#31477D"/>
<path d="M250.286 24.5915C248.646 24.5915 247.188 24.2473 245.912 23.5588C244.656 22.8501 243.664 21.8883 242.935 20.6734C242.227 19.4584 241.872 18.0613 241.872 16.4818C241.872 15.2264 242.075 14.0823 242.48 13.0497C242.885 12.017 243.442 11.126 244.15 10.3768C244.879 9.60733 245.74 9.02011 246.732 8.61514C247.744 8.18991 248.838 7.97729 250.012 7.97729C251.045 7.97729 252.007 8.17978 252.898 8.58476C253.789 8.96949 254.558 9.50609 255.206 10.1946C255.874 10.883 256.381 11.7031 256.725 12.6548C257.089 13.5862 257.261 14.6088 257.241 15.7225L257.211 17.0589H244.181L243.482 14.5683H254.508L254.052 15.0847V14.3557C253.991 13.6875 253.768 13.0901 253.384 12.5637C252.999 12.0372 252.513 11.6221 251.926 11.3184C251.339 11.0146 250.701 10.8628 250.012 10.8628C248.919 10.8628 247.998 11.0754 247.248 11.5006C246.499 11.9056 245.932 12.5131 245.547 13.323C245.163 14.1127 244.97 15.0948 244.97 16.2692C244.97 17.3829 245.203 18.3549 245.669 19.1851C246.135 19.995 246.793 20.6227 247.643 21.0682C248.494 21.5137 249.476 21.7364 250.589 21.7364C251.379 21.7364 252.108 21.6048 252.776 21.3416C253.465 21.0783 254.204 20.6025 254.994 19.914L256.573 22.1313C256.087 22.6173 255.49 23.0425 254.781 23.407C254.092 23.7715 253.353 24.0651 252.564 24.2878C251.794 24.4903 251.035 24.5915 250.286 24.5915Z" fill="#31477D"/>
<path d="M234.907 24.2878V8.34173H238.036V24.2878H234.907ZM236.426 4.81841C235.758 4.81841 235.241 4.6463 234.877 4.30207C234.512 3.95783 234.33 3.47186 234.33 2.84414C234.33 2.25692 234.512 1.78108 234.877 1.41659C235.261 1.05211 235.778 0.869873 236.426 0.869873C237.094 0.869873 237.61 1.04199 237.975 1.38622C238.339 1.73045 238.521 2.21643 238.521 2.84414C238.521 3.43136 238.329 3.90721 237.944 4.27169C237.58 4.63617 237.074 4.81841 236.426 4.81841Z" fill="#31477D"/>
<path d="M227.612 24.2877V13.9C227.612 13.0091 227.288 12.2902 226.64 11.7435C226.012 11.1765 225.212 10.893 224.241 10.893C223.35 10.893 222.54 11.0753 221.811 11.4398C221.102 11.8042 220.454 12.3611 219.867 13.1103L217.832 11.0753C218.783 10.0426 219.806 9.27313 220.899 8.7669C222.013 8.26068 223.208 8.00757 224.484 8.00757C225.698 8.00757 226.751 8.21006 227.642 8.61504C228.533 9.02001 229.222 9.61736 229.708 10.4071C230.194 11.1765 230.437 12.1181 230.437 13.2318V24.2877H227.612ZM222.843 24.5914C221.811 24.5914 220.889 24.389 220.079 23.984C219.269 23.579 218.621 23.0221 218.135 22.3134C217.67 21.5845 217.437 20.734 217.437 19.7621C217.437 18.9116 217.589 18.1624 217.892 17.5144C218.196 16.8665 218.642 16.3299 219.229 15.9047C219.836 15.4794 220.586 15.1554 221.477 14.9327C222.388 14.71 223.431 14.5986 224.605 14.5986H229.04L228.766 17.0892H224.21C223.603 17.0892 223.056 17.15 222.57 17.2715C222.104 17.3727 221.699 17.5448 221.355 17.7878C221.031 18.0105 220.788 18.2839 220.626 18.6079C220.464 18.9116 220.383 19.2761 220.383 19.7013C220.383 20.1468 220.494 20.5417 220.717 20.8859C220.94 21.2099 221.244 21.463 221.628 21.6452C222.013 21.8275 222.459 21.9186 222.965 21.9186C223.694 21.9186 224.382 21.7971 225.03 21.5541C225.698 21.2909 226.286 20.9365 226.792 20.491C227.318 20.0456 227.723 19.5495 228.007 19.0027L228.736 21.0378C228.311 21.7465 227.784 22.3641 227.156 22.8905C226.529 23.417 225.85 23.8321 225.121 24.1358C224.392 24.4396 223.633 24.5914 222.843 24.5914Z" fill="#31477D"/>
<path d="M198.311 24.2877V3.02637H207.18C208.537 3.02637 209.681 3.22886 210.612 3.63384C211.544 4.03881 212.242 4.64628 212.708 5.45624C213.194 6.24595 213.437 7.2179 213.437 8.37208C213.437 9.52627 213.113 10.5083 212.465 11.3183C211.837 12.1283 210.957 12.6851 209.823 12.9888V12.3814C210.774 12.5839 211.605 12.9483 212.313 13.4748C213.022 13.981 213.569 14.6189 213.953 15.3883C214.358 16.1578 214.561 17.0386 214.561 18.0308C214.561 19.0433 214.399 19.9443 214.075 20.7341C213.771 21.5035 213.305 22.1515 212.678 22.678C212.07 23.2044 211.331 23.6094 210.461 23.8929C209.59 24.1561 208.598 24.2877 207.484 24.2877H198.311ZM201.591 21.1289H207.302C208.537 21.1289 209.499 20.8555 210.187 20.3088C210.876 19.7621 211.22 18.9825 211.22 17.9701C211.22 17.3424 211.048 16.8058 210.704 16.3603C210.38 15.9148 209.914 15.5807 209.306 15.358C208.699 15.115 207.98 14.9935 207.15 14.9935H201.591V21.1289ZM201.591 11.8347H206.998C207.605 11.8347 208.142 11.7132 208.608 11.4702C209.094 11.2272 209.468 10.8931 209.732 10.4678C210.015 10.0426 210.157 9.55665 210.157 9.00993C210.157 8.09872 209.853 7.40014 209.246 6.91416C208.638 6.42819 207.767 6.1852 206.633 6.1852H201.591V11.8347Z" fill="#31477D"/>
<defs>
<clipPath id="clip0_6408_362">
<rect width="44.4579" height="30.3995" fill="white" transform="translate(145.331 26.7185) rotate(8.0481)"/>
</clipPath>
</defs>
</svg>
