<svg width="75" height="75" viewBox="0 0 75 75" fill="none" xmlns="http://www.w3.org/2000/svg">
<path d="M48.75 67.1632L26.25 59.2882L11.4075 65.0257C10.4475 65.3832 9.55625 65.2795 8.73375 64.7145C7.91125 64.1495 7.5 63.3557 7.5 62.3332V16.467C7.5 15.7995 7.6625 15.1882 7.9875 14.6332C8.3125 14.0782 8.785 13.6945 9.405 13.482L26.25 7.74072L48.75 15.6157L63.5925 9.87822C64.5525 9.52072 65.4437 9.58822 66.2662 10.0807C67.0887 10.5732 67.5 11.307 67.5 12.282V58.7257C67.5 59.4432 67.3012 60.0657 66.9037 60.5932C66.5087 61.1232 65.9763 61.4957 65.3063 61.7107L48.75 67.1632ZM46.875 62.5882V18.7132L28.125 12.1695V56.0445L46.875 62.5882ZM50.625 62.5882L63.75 58.2645V13.827L50.625 18.717V62.5882ZM11.25 61.077L24.375 56.0445V12.1695L11.25 16.6395V61.077Z" fill="#31477D"/>
</svg>
