<svg width="36" height="32" viewBox="0 0 36 32" fill="none" xmlns="http://www.w3.org/2000/svg">
<path d="M1.69727 6.3125H34.1973C34.8848 6.3125 35.4473 5.75 35.4473 5.0625V1.9375C35.4473 1.25 34.8848 0.6875 34.1973 0.6875H1.69727C1.00977 0.6875 0.447266 1.25 0.447266 1.9375V5.0625C0.447266 5.75 1.00977 6.3125 1.69727 6.3125ZM1.69727 18.8125H34.1973C34.8848 18.8125 35.4473 18.25 35.4473 17.5625V14.4375C35.4473 13.75 34.8848 13.1875 34.1973 13.1875H1.69727C1.00977 13.1875 0.447266 13.75 0.447266 14.4375V17.5625C0.447266 18.25 1.00977 18.8125 1.69727 18.8125ZM1.69727 31.3125H34.1973C34.8848 31.3125 35.4473 30.75 35.4473 30.0625V26.9375C35.4473 26.25 34.8848 25.6875 34.1973 25.6875H1.69727C1.00977 25.6875 0.447266 26.25 0.447266 26.9375V30.0625C0.447266 30.75 1.00977 31.3125 1.69727 31.3125Z" fill="white"/>
</svg>
