<svg width="75" height="75" viewBox="0 0 75 75" fill="none" xmlns="http://www.w3.org/2000/svg">
<path d="M9.375 15.625C9.375 13.9674 10.0335 12.3777 11.2056 11.2056C12.3777 10.0335 13.9674 9.375 15.625 9.375H59.375C61.0326 9.375 62.6223 10.0335 63.7944 11.2056C64.9665 12.3777 65.625 13.9674 65.625 15.625V59.375C65.625 61.0326 64.9665 62.6223 63.7944 63.7944C62.6223 64.9665 61.0326 65.625 59.375 65.625H15.625C13.9674 65.625 12.3777 64.9665 11.2056 63.7944C10.0335 62.6223 9.375 61.0326 9.375 59.375V15.625Z" stroke="#31477D" stroke-width="4" stroke-linecap="round" stroke-linejoin="round"/>
<path d="M31.25 50V25H39.5844C41.8844 25 43.75 27.7969 43.75 31.25C43.75 34.7031 41.8844 37.5 39.5844 37.5H31.25" stroke="#31477D" stroke-width="4" stroke-linecap="round" stroke-linejoin="round"/>
</svg>
