<svg width="75" height="75" viewBox="0 0 75 75" fill="none" xmlns="http://www.w3.org/2000/svg">
<path d="M44.2313 38.9438H56.9719V35.8188H44.2313V38.9438ZM44.2313 30.2875H56.9719V27.1625H44.2313V30.2875ZM18.0281 47.8375H38.7031V47.3188C38.7031 45.4958 37.7865 44.0854 35.9531 43.0875C34.1198 42.0896 31.5906 41.5896 28.3656 41.5875C25.1365 41.5875 22.6062 42.0875 20.775 43.0875C18.9437 44.0875 18.0281 45.4979 18.0281 47.3188V47.8375ZM28.3656 36.5375C29.6844 36.5375 30.7948 36.0865 31.6969 35.1844C32.601 34.2802 33.0531 33.1688 33.0531 31.85C33.0531 30.5333 32.601 29.4229 31.6969 28.5188C30.7948 27.6146 29.6844 27.1625 28.3656 27.1625C27.0469 27.1625 25.9365 27.6146 25.0344 28.5188C24.1302 29.4229 23.6781 30.5333 23.6781 31.85C23.6781 33.1688 24.1302 34.2802 25.0344 35.1844C25.9365 36.0865 27.0469 36.5375 28.3656 36.5375ZM14.4219 59.375C12.9844 59.375 11.7844 58.8937 10.8219 57.9313C9.85729 56.9667 9.375 55.7656 9.375 54.3281V20.6719C9.375 19.2344 9.85729 18.0344 10.8219 17.0719C11.7844 16.1073 12.9844 15.625 14.4219 15.625H60.5781C62.0156 15.625 63.2156 16.1073 64.1781 17.0719C65.1427 18.0344 65.625 19.2344 65.625 20.6719V54.3281C65.625 55.7656 65.1437 56.9656 64.1813 57.9281C63.2167 58.8927 62.0156 59.375 60.5781 59.375H14.4219ZM14.4219 56.25H60.5781C61.0573 56.25 61.4979 56.05 61.9 55.65C62.3 55.2479 62.5 54.8073 62.5 54.3281V20.6719C62.5 20.1927 62.3 19.7521 61.9 19.35C61.4979 18.95 61.0573 18.75 60.5781 18.75H14.4219C13.9427 18.75 13.5021 18.95 13.1 19.35C12.7 19.7521 12.5 20.1927 12.5 20.6719V54.3281C12.5 54.8073 12.7 55.2479 13.1 55.65C13.5021 56.05 13.9427 56.25 14.4219 56.25Z" fill="#31477D"/>
</svg>
