<svg width="33" height="38" viewBox="0 0 33 38" fill="none" xmlns="http://www.w3.org/2000/svg">
<g clip-path="url(#clip0_6530_1711)">
<path d="M30.559 15.5312H2.3507C1.05047 15.5312 0 16.5646 0 17.8438V20.1562C0 21.4354 1.05047 22.4688 2.3507 22.4688H30.559C31.8593 22.4688 32.9097 21.4354 32.9097 20.1562V17.8438C32.9097 16.5646 31.8593 15.5312 30.559 15.5312Z" fill="#31477D"/>
<path d="M12.9863 4.89579L12.9863 33.1041C12.9863 34.4044 14.0197 35.4548 15.2988 35.4548H17.6113C18.8904 35.4548 19.9238 34.4044 19.9238 33.1041V4.89579C19.9238 3.59557 18.8904 2.5451 17.6113 2.5451H15.2988C14.0197 2.5451 12.9863 3.59557 12.9863 4.89579Z" fill="#31477D"/>
</g>
<defs>
<clipPath id="clip0_6530_1711">
<rect width="32.9097" height="37" fill="white" transform="translate(0 0.5)"/>
</clipPath>
</defs>
</svg>
