<svg width="52" height="50" viewBox="0 0 52 50" fill="none" xmlns="http://www.w3.org/2000/svg">
<path d="M33.195 29.1667H31.5031L30.9035 28.6042C33.0748 26.1542 34.2682 23.0265 34.2658 19.7917C34.2658 17.1134 33.4494 14.4952 31.9198 12.2683C30.3902 10.0414 28.2161 8.30574 25.6725 7.2808C23.1288 6.25587 20.3299 5.9877 17.6296 6.51021C14.9292 7.03271 12.4489 8.32243 10.502 10.2163C8.55521 12.1101 7.22942 14.523 6.69229 17.1498C6.15516 19.7766 6.43084 22.4994 7.48445 24.9738C8.53806 27.4483 10.3223 29.5632 12.6115 31.0512C14.9007 32.5391 17.5921 33.3333 20.3453 33.3333C23.7933 33.3333 26.9629 32.1042 29.4044 30.0625L29.9826 30.6458V32.2917L40.6907 42.6875L43.8817 39.5833L33.195 29.1667ZM20.3453 29.1667C15.0127 29.1667 10.708 24.9792 10.708 19.7917C10.708 14.6042 15.0127 10.4167 20.3453 10.4167C25.6779 10.4167 29.9826 14.6042 29.9826 19.7917C29.9826 24.9792 25.6779 29.1667 20.3453 29.1667Z" fill="white"/>
</svg>
