<svg width="87" height="87" viewBox="0 0 87 87" fill="none" xmlns="http://www.w3.org/2000/svg">
<g clip-path="url(#clip0_6408_437)">
<path d="M44.08 27.1875C35.0911 27.1875 27.7675 34.5111 27.7675 43.5C27.7675 52.4889 35.0911 59.8125 44.08 59.8125C53.0689 59.8125 60.3925 52.4889 60.3925 43.5C60.3925 34.5111 53.0689 27.1875 44.08 27.1875ZM85.9487 40.8662L69.8571 32.8289L75.5495 15.7688C76.3142 13.4578 74.1222 11.2658 71.8282 12.0475L54.7681 17.7398L46.7138 1.63125C45.6263 -0.54375 42.5337 -0.54375 41.4462 1.63125L33.4089 17.7229L16.3317 12.0305C14.0208 11.2658 11.8288 13.4578 12.6105 15.7518L18.3028 32.8119L2.21124 40.8662C0.0362366 41.9537 0.0362366 45.0463 2.21124 46.1338L18.3028 54.1711L12.6105 71.2482C11.8458 73.5592 14.0378 75.7512 16.3317 74.9695L33.3919 69.2772L41.4292 85.3688C42.5167 87.5437 45.6093 87.5437 46.6968 85.3688L54.7341 69.2772L71.7942 74.9695C74.1052 75.7342 76.2972 73.5422 75.5155 71.2482L69.8232 54.1881L85.9148 46.1508C88.1237 45.0463 88.1237 41.9537 85.9487 40.8662ZM59.4579 58.8779C50.9788 67.357 37.1812 67.357 28.7021 58.8779C20.223 50.3988 20.223 36.6012 28.7021 28.1221C37.1812 19.643 50.9788 19.643 59.4579 28.1221C67.937 36.6012 67.937 50.3988 59.4579 58.8779Z" fill="#F26223"/>
</g>
<defs>
<clipPath id="clip0_6408_437">
<rect width="87" height="87" fill="white"/>
</clipPath>
</defs>
</svg>
