<svg width="75" height="76" viewBox="0 0 75 76" fill="none" xmlns="http://www.w3.org/2000/svg">
<path d="M24.375 45.5C23.8777 45.5 23.4008 45.3025 23.0492 44.9508C22.6975 44.5992 22.5 44.1223 22.5 43.625C22.5 43.1277 22.6975 42.6508 23.0492 42.2992C23.4008 41.9475 23.8777 41.75 24.375 41.75H50.625C51.1223 41.75 51.5992 41.9475 51.9508 42.2992C52.3025 42.6508 52.5 43.1277 52.5 43.625C52.5 44.1223 52.3025 44.5992 51.9508 44.9508C51.5992 45.3025 51.1223 45.5 50.625 45.5H24.375ZM24.375 56.75C23.8777 56.75 23.4008 56.5525 23.0492 56.2008C22.6975 55.8492 22.5 55.3723 22.5 54.875C22.5 54.3777 22.6975 53.9008 23.0492 53.5492C23.4008 53.1975 23.8777 53 24.375 53H50.625C51.1223 53 51.5992 53.1975 51.9508 53.5492C52.3025 53.9008 52.5 54.3777 52.5 54.875C52.5 55.3723 52.3025 55.8492 51.9508 56.2008C51.5992 56.5525 51.1223 56.75 50.625 56.75H24.375Z" fill="#31477D"/>
<path fill-rule="evenodd" clip-rule="evenodd" d="M41.9438 4.25H16.875C15.3832 4.25 13.9524 4.84263 12.8975 5.89753C11.8426 6.95242 11.25 8.38316 11.25 9.875V66.125C11.25 67.6168 11.8426 69.0476 12.8975 70.1025C13.9524 71.1574 15.3832 71.75 16.875 71.75H58.125C59.6168 71.75 61.0476 71.1574 62.1025 70.1025C63.1574 69.0476 63.75 67.6168 63.75 66.125V27.5075C63.7496 26.0993 63.2211 24.7424 62.2687 23.705L46.0913 6.0725C45.564 5.4978 44.9231 5.039 44.2091 4.72525C43.4951 4.41151 42.7236 4.24966 41.9438 4.25ZM15 9.875C15 9.37772 15.1975 8.90081 15.5492 8.54918C15.9008 8.19754 16.3777 8 16.875 8H41.9438C42.2039 7.99971 42.4613 8.05358 42.6995 8.15817C42.9378 8.26275 43.1516 8.41578 43.3275 8.6075L59.505 26.24C59.8229 26.5856 59.9995 27.0379 60 27.5075V66.125C60 66.6223 59.8025 67.0992 59.4508 67.4508C59.0992 67.8025 58.6223 68 58.125 68H16.875C16.3777 68 15.9008 67.8025 15.5492 67.4508C15.1975 67.0992 15 66.6223 15 66.125V9.875Z" fill="#31477D"/>
<path d="M41.25 26.75H61.875C62.3723 26.75 62.8492 26.9475 63.2008 27.2992C63.5525 27.6508 63.75 28.1277 63.75 28.625C63.75 29.1223 63.5525 29.5992 63.2008 29.9508C62.8492 30.3025 62.3723 30.5 61.875 30.5H39.375C38.8777 30.5 38.4008 30.3025 38.0492 29.9508C37.6975 29.5992 37.5 29.1223 37.5 28.625V6.125C37.5 5.62772 37.6975 5.15081 38.0492 4.79917C38.4008 4.44754 38.8777 4.25 39.375 4.25C39.8723 4.25 40.3492 4.44754 40.7008 4.79917C41.0525 5.15081 41.25 5.62772 41.25 6.125V26.75Z" fill="#31477D"/>
</svg>
