<svg width="75" height="75" viewBox="0 0 75 75" fill="none" xmlns="http://www.w3.org/2000/svg">
<path d="M62.5 28.125L56.2656 63.5812C56.0113 65.0293 55.2546 66.3413 54.1287 67.2866C53.0027 68.2319 51.5796 68.7501 50.1094 68.75H24.8906C23.4204 68.7501 21.9973 68.2319 20.8713 67.2866C19.7454 66.3413 18.9887 65.0293 18.7344 63.5812L12.5 28.125M65.625 18.75H48.0469M48.0469 18.75V12.5C48.0469 10.8424 47.3884 9.25268 46.2163 8.08058C45.0442 6.90848 43.4545 6.25 41.7969 6.25H33.2031C31.5455 6.25 29.9558 6.90848 28.7837 8.08058C27.6116 9.25268 26.9531 10.8424 26.9531 12.5V18.75M48.0469 18.75H26.9531M9.375 18.75H26.9531" stroke="#31477D" stroke-width="4" stroke-linecap="round" stroke-linejoin="round"/>
</svg>
