<svg width="62" height="53" viewBox="0 0 62 53" fill="none" xmlns="http://www.w3.org/2000/svg">
<path d="M58.7149 12.8463C58.0477 10.393 56.0885 8.46758 53.5998 7.81543C49.0884 6.625 31.0002 6.625 31.0002 6.625C31.0002 6.625 12.912 6.625 8.40052 7.81543C5.91181 8.46758 3.9526 10.393 3.28542 12.8463C2.07812 17.2871 2.07812 26.5414 2.07812 26.5414C2.07812 26.5414 2.07812 35.7957 3.28542 40.2365C3.9526 42.6898 5.91181 44.5324 8.40052 45.1846C12.912 46.375 31.0002 46.375 31.0002 46.375C31.0002 46.375 49.0884 46.375 53.5998 45.1846C56.0885 44.5324 58.0477 42.6795 58.7149 40.2365C59.9222 35.7957 59.9222 26.5414 59.9222 26.5414C59.9222 26.5414 59.9222 17.2871 58.7149 12.8463ZM25.0908 34.9469V18.1359L40.2031 26.5414L25.0908 34.9469Z" fill="white"/>
</svg>
